<?xml version="1.0" standalone="no"?>
<!DOCTYPE svg PUBLIC "-//W3C//DTD SVG 20010904//EN"
 "http://www.w3.org/TR/2001/REC-SVG-20010904/DTD/svg10.dtd">
<svg version="1.0" xmlns="http://www.w3.org/2000/svg"
 width="986.000000pt" height="1280.000000pt" viewBox="0 0 986.000000 1280.000000"
 preserveAspectRatio="xMidYMid meet">
<g transform="translate(0.000000,1280.000000) scale(0.100000,-0.100000)"
fill="#0350b0" stroke="none">
<path d="M6907 12773 c5 -13 1 -15 -20 -11 -30 6 -31 5 -17 -23 13 -24 29 -24
46 -1 18 23 17 39 0 45 -11 4 -13 1 -9 -10z"/>
<path d="M6878 12662 c-6 -22 17 -58 26 -43 8 12 -3 61 -14 61 -4 0 -10 -8
-12 -18z"/>
<path d="M6843 12600 c2 -27 6 -34 20 -32 19 3 19 1 17 -103 -1 -38 -6 -78
-12 -88 -7 -15 -6 -23 6 -35 26 -26 34 -4 37 103 3 101 -4 145 -23 145 -5 0
-18 10 -28 23 l-18 22 1 -35z"/>
<path d="M6960 12566 c0 -9 7 -16 16 -16 17 0 14 22 -4 28 -7 2 -12 -3 -12
-12z"/>
<path d="M6750 12520 c0 -5 7 -10 15 -10 8 0 15 5 15 10 0 6 -7 10 -15 10 -8
0 -15 -4 -15 -10z"/>
<path d="M7007 12513 c-12 -11 -8 -23 8 -23 8 0 15 7 15 15 0 16 -12 20 -23 8z"/>
<path d="M6795 12450 c3 -5 10 -10 16 -10 5 0 9 5 9 10 0 6 -7 10 -16 10 -8 0
-12 -4 -9 -10z"/>
<path d="M6818 12342 c-23 -5 -23 -11 8 -84 26 -62 36 -171 18 -199 -4 -7 -7
-33 -5 -57 1 -24 -2 -48 -7 -55 -5 -7 -12 -41 -16 -77 -9 -88 -62 -318 -81
-346 -8 -13 -15 -37 -15 -54 0 -18 -6 -33 -15 -36 -8 -4 -15 -18 -15 -33 0
-38 -17 -94 -55 -186 -18 -44 -41 -101 -50 -127 -9 -26 -25 -55 -34 -65 -9
-10 -24 -43 -34 -74 -9 -31 -28 -73 -42 -93 -14 -20 -25 -41 -25 -46 0 -5 -11
-17 -25 -26 -24 -16 -37 -43 -13 -28 8 5 9 2 3 -12 -4 -10 -13 -34 -19 -51
-11 -35 -36 -53 -36 -27 0 8 -4 12 -10 9 -5 -3 -10 -20 -10 -38 0 -24 -3 -28
-12 -19 -7 7 -20 12 -31 12 -16 0 -18 -6 -12 -53 5 -42 4 -56 -9 -66 -24 -20
-20 -34 24 -75 24 -22 40 -46 40 -59 -1 -49 -23 -114 -48 -140 -26 -27 -27
-34 -27 -130 -1 -56 -2 -113 -3 -126 -2 -24 -2 -24 -17 -5 -8 10 -15 29 -15
42 0 12 -5 22 -11 22 -9 0 -10 -28 -6 -100 4 -84 9 -107 31 -145 15 -25 23
-45 17 -45 -5 0 -11 6 -14 14 -6 14 -47 29 -47 17 0 -4 11 -22 24 -40 l25 -33
-23 -62 c-63 -168 -219 -438 -305 -528 -29 -32 -42 -38 -76 -38 l-40 -1 44
-22 c25 -13 47 -29 49 -37 3 -11 0 -10 -14 3 -18 16 -20 15 -56 -24 l-38 -42
6 32 c4 20 3 31 -5 31 -6 0 -11 -10 -11 -22 0 -13 -4 -30 -9 -37 -10 -16 -15
-3 -25 72 -4 28 -1 37 10 37 11 0 13 6 8 23 -10 32 -15 34 -28 13 -6 -10 -21
-31 -33 -46 -29 -36 -42 -97 -43 -197 0 -71 3 -87 25 -119 31 -46 34 -115 6
-158 -11 -16 -17 -34 -15 -40 5 -12 -65 -100 -73 -93 -2 3 -6 68 -8 146 -2 77
-8 148 -13 157 -17 31 -31 -69 -43 -306 -6 -124 -14 -247 -18 -275 -6 -45 -9
-50 -30 -47 -13 2 -27 -2 -31 -8 -5 -9 -13 -9 -27 -1 -16 8 -24 6 -38 -9 -10
-11 -15 -26 -12 -35 7 -17 33 -20 42 -4 4 5 26 -16 51 -48 l43 -58 1 -165 c0
-231 -20 -1092 -26 -1109 -3 -11 -7 -12 -16 -3 -33 33 -37 -11 -7 -78 17 -39
20 -65 20 -217 0 -104 -5 -181 -11 -193 -7 -14 -7 -26 -1 -39 6 -10 8 -21 4
-24 -11 -12 7 -55 26 -60 12 -3 24 -20 32 -43 19 -60 23 -591 8 -1039 -14
-442 -14 -424 -9 -525 3 -80 -7 -827 -20 -1415 -4 -198 -9 -515 -9 -705 -1
-190 -6 -435 -11 -545 -6 -110 -10 -208 -11 -217 0 -14 -9 -18 -42 -18 -23 0
-52 -3 -65 -6 -18 -5 -24 -2 -29 15 -3 11 -9 18 -14 15 -5 -3 -7 -9 -4 -14 10
-17 -18 -23 -30 -6 -11 14 -13 15 -19 1 -8 -22 -23 -18 -30 8 l-7 22 -9 -22
c-8 -21 -16 -23 -79 -23 -38 0 -76 -3 -84 -6 -11 -4 -17 2 -19 23 -4 28 -4 28
-14 5 l-10 -23 -23 25 c-28 29 -30 42 -44 236 -12 152 -27 184 -27 55 0 -35
-5 -67 -10 -70 -7 -4 -7 -12 0 -25 13 -25 13 -30 -5 -30 -9 0 -15 10 -15 26 0
23 -16 70 -41 116 -23 44 -39 108 -39 158 0 86 -12 190 -21 190 -5 0 -9 -11
-9 -25 0 -14 -6 -41 -14 -60 -12 -27 -12 -40 -3 -65 9 -23 9 -35 -1 -50 -6
-11 -12 -31 -12 -44 0 -14 -4 -28 -10 -31 -5 -3 -10 -17 -10 -30 0 -14 -9 -29
-20 -35 -11 -6 -20 -20 -20 -32 0 -11 -6 -26 -14 -32 -7 -6 -16 -36 -20 -67
-5 -45 -3 -58 9 -63 11 -4 15 -22 15 -70 0 -92 -3 -96 -66 -96 -41 0 -54 4
-54 15 0 8 -4 15 -10 15 -5 0 -10 -7 -10 -15 0 -8 -11 -17 -25 -20 -79 -16
-74 -18 -81 21 -3 19 -2 115 4 212 10 156 14 179 31 193 19 16 19 16 0 32 -16
14 -19 31 -20 109 -1 51 -5 107 -8 123 -6 25 -9 18 -15 -40 -12 -118 -13 -115
-15 38 -1 113 3 156 14 185 14 33 14 38 0 48 -12 9 -13 17 -4 43 10 29 9 34
-10 47 -13 10 -21 26 -21 44 0 20 -6 31 -20 35 -14 4 -20 15 -20 36 0 16 -4
29 -10 29 -5 0 -7 13 -4 29 3 16 1 38 -5 50 -9 15 -9 26 -1 42 9 15 8 24 -1
35 -16 20 -5 92 17 108 17 13 16 14 -4 25 -15 8 -22 21 -22 43 0 26 -2 29 -15
18 -8 -7 -15 -21 -15 -31 0 -10 -7 -22 -16 -27 -13 -7 -14 -13 -5 -30 14 -25
15 -99 1 -107 -6 -4 -6 -15 1 -32 6 -18 6 -30 -2 -39 -6 -8 -9 -25 -6 -39 3
-18 -1 -29 -13 -35 -12 -6 -16 -17 -13 -34 4 -17 -1 -27 -16 -35 -12 -7 -21
-22 -21 -35 0 -13 -9 -31 -20 -41 -12 -11 -20 -31 -20 -52 0 -18 -4 -33 -10
-33 -16 0 -12 -42 6 -54 13 -10 14 -26 2 -146 -9 -90 -14 -119 -16 -87 -5 69
-22 58 -23 -15 -1 -113 -12 -161 -36 -174 l-23 -11 26 -11 c19 -9 25 -18 22
-39 -7 -58 -35 -24 -68 84 -7 23 -11 68 -8 102 2 34 -1 87 -8 119 -7 31 -13
47 -13 35 -1 -13 -8 -41 -17 -63 -12 -29 -14 -44 -6 -52 8 -8 7 -14 -2 -24 -7
-7 -16 -41 -20 -75 -3 -34 -15 -78 -26 -96 -11 -19 -20 -41 -20 -49 0 -8 -4
-14 -10 -14 -5 0 -10 -17 -10 -38 0 -21 -5 -43 -11 -49 -5 -5 -13 -32 -17 -59
l-7 -49 -21 35 c-23 37 -39 111 -49 227 -4 40 -10 71 -15 68 -4 -2 -10 -37
-14 -77 -4 -40 -9 -80 -12 -89 -3 -9 2 -24 11 -32 18 -19 19 -25 3 -23 -7 0
-13 -3 -13 -9 0 -5 7 -9 15 -7 8 1 3 -8 -12 -21 -17 -13 -28 -33 -28 -47 l0
-25 -19 25 c-17 21 -21 22 -35 11 -13 -11 -22 -11 -40 -3 -21 9 -24 19 -35
155 -17 206 -19 217 -45 214 -16 -1 -22 4 -24 23 -2 14 -6 32 -9 40 -4 8 -7
49 -8 90 0 41 -3 80 -6 85 -4 6 -7 25 -7 44 -1 38 -12 57 -12 20 0 -13 -6 -36
-14 -50 -9 -17 -10 -32 -4 -43 10 -18 -9 -133 -23 -142 -5 -3 -9 -19 -9 -35 0
-17 -6 -32 -15 -35 -8 -4 -15 -14 -15 -24 0 -10 -7 -25 -15 -34 -18 -17 -39
-149 -25 -154 6 -2 10 -40 10 -84 0 -68 -2 -79 -14 -69 -12 10 -15 8 -18 -11
-5 -36 -35 -34 -58 4 -19 32 -20 32 -21 8 -1 -24 -1 -24 -11 5 -6 17 -14 35
-19 40 -4 6 -11 53 -15 105 -10 138 -19 148 -32 35 -7 -53 -18 -107 -24 -119
-7 -11 -11 -27 -10 -33 3 -16 -1 -16 -63 1 -42 11 -50 16 -48 34 2 15 -2 20
-11 16 -11 -4 -16 7 -21 40 -7 42 -5 74 11 233 4 36 1 61 -11 87 -9 19 -14 39
-11 44 3 5 -3 17 -14 27 -11 10 -20 30 -20 44 0 14 -4 33 -9 40 -6 9 -6 22 1
34 7 13 7 22 -1 30 -15 15 -14 70 1 85 10 10 10 15 1 20 -6 4 -13 32 -15 62
-2 30 -6 48 -9 40 -25 -67 -36 -115 -30 -132 8 -21 -5 -112 -20 -140 -5 -10
-9 -29 -9 -43 0 -14 -5 -25 -10 -25 -6 0 -16 -12 -22 -28 -7 -15 -18 -35 -26
-44 -11 -13 -15 -44 -14 -120 1 -57 -4 -131 -10 -166 -13 -71 -4 -68 -115 -36
-61 17 -73 33 -74 101 -1 82 -14 93 -27 22 -6 -34 -16 -67 -22 -73 -6 -6 -33
-6 -81 1 -78 12 -88 18 -71 35 14 14 16 32 3 23 -5 -3 -11 3 -13 12 -6 32 11
182 23 204 20 39 -7 183 -46 243 -9 13 -13 30 -10 39 4 8 2 18 -4 22 -13 8
-14 144 -1 165 5 9 5 19 -1 26 -6 7 -13 69 -16 138 -3 70 -7 125 -9 123 -2 -1
-8 -59 -13 -127 -6 -69 -15 -126 -21 -128 -6 -2 -8 -24 -4 -56 4 -34 3 -56 -4
-60 -6 -4 -9 -19 -6 -34 4 -19 0 -33 -10 -41 -9 -8 -16 -27 -16 -43 0 -16 -6
-31 -14 -34 -8 -3 -19 -19 -25 -35 -5 -16 -14 -29 -19 -29 -5 0 -10 -19 -10
-42 -1 -62 -11 -258 -14 -290 -2 -21 -8 -28 -25 -28 -12 0 -25 5 -28 10 -3 6
-16 10 -28 10 -11 0 -59 12 -105 26 -62 18 -86 30 -89 45 -3 10 -10 16 -16 12
-7 -4 -8 26 -5 90 4 71 1 104 -8 123 -8 14 -14 36 -14 48 0 13 -3 26 -7 30
-10 10 -43 -110 -43 -156 0 -52 -21 -138 -34 -138 -35 1 -40 18 -38 122 2 114
9 161 22 153 17 -11 20 15 6 50 -12 27 -13 41 -4 59 8 19 7 29 -6 47 -9 13
-16 31 -16 40 0 9 -6 22 -14 28 -8 6 -16 26 -19 44 -24 136 -27 171 -19 197 6
16 6 33 1 41 -5 8 -9 75 -10 149 0 74 -2 131 -4 125 -4 -10 -25 -196 -29 -245
-1 -14 -5 -31 -9 -37 -4 -7 -8 -32 -7 -55 0 -61 -11 -122 -24 -130 -6 -4 -11
-13 -12 -20 -1 -28 -16 -58 -29 -58 -7 0 -15 -12 -18 -27 -2 -16 -9 -41 -15
-58 -29 -82 -34 -112 -23 -133 14 -26 14 -132 1 -168 -8 -19 -7 -30 1 -40 7
-8 9 -17 6 -20 -9 -9 -37 22 -37 40 0 21 -17 20 -28 -1 -9 -15 -19 -14 -123
11 -63 15 -123 31 -134 36 -11 5 -36 11 -55 14 -110 18 -110 18 -116 43 -11
44 6 237 21 249 12 9 13 25 5 90 -13 116 -20 141 -41 160 -11 10 -19 30 -19
50 0 18 -4 36 -10 39 -5 3 -10 20 -9 38 0 18 -3 47 -7 65 -4 21 -2 43 7 58 10
20 10 29 1 44 -7 11 -12 48 -12 82 -1 73 -14 62 -25 -19 -4 -29 -11 -56 -16
-59 -5 -3 -6 -29 -3 -58 4 -35 3 -56 -5 -60 -6 -4 -11 -24 -11 -46 0 -25 -5
-40 -16 -44 -10 -4 -13 -13 -10 -24 4 -12 -4 -32 -24 -57 -16 -21 -30 -44 -30
-51 0 -8 -6 -14 -14 -14 -9 0 -16 -19 -20 -63 -9 -83 -9 -87 0 -201 7 -93 6
-99 -11 -93 -14 6 -16 3 -12 -14 5 -20 3 -21 -41 -14 -59 9 -62 11 -62 40 0
33 -17 40 -24 10 -4 -14 -11 -23 -17 -19 -6 3 -8 12 -6 18 3 7 1 19 -4 27 -6
10 -9 7 -9 -13 0 -32 -4 -32 -79 -15 -54 13 -84 38 -74 63 3 8 0 14 -5 14 -6
0 -13 -9 -17 -19 -5 -16 -14 -19 -49 -18 -32 1 -42 5 -38 16 4 11 1 11 -16 2
-15 -8 -22 -8 -22 -1 0 5 -10 10 -23 10 -37 0 -47 19 -47 90 0 118 11 200 28
200 11 0 13 8 8 32 -8 37 -8 46 -4 107 2 29 -2 46 -10 49 -6 2 -12 14 -12 26
0 13 -9 34 -21 47 -12 14 -18 32 -15 43 3 11 -3 32 -12 48 -13 22 -14 32 -5
47 7 11 8 23 2 32 -12 19 -11 76 1 99 7 13 7 21 0 25 -5 3 -10 23 -11 43 -1
20 -4 48 -8 62 -7 21 -9 18 -15 -25 -4 -27 -11 -58 -17 -67 -5 -10 -9 -45 -9
-77 0 -33 -4 -62 -10 -66 -5 -3 -7 -12 -3 -20 3 -9 -1 -25 -9 -38 -8 -12 -20
-38 -27 -58 -7 -22 -20 -39 -31 -42 -13 -3 -20 -14 -20 -30 0 -14 -8 -33 -17
-43 -16 -16 -19 -53 -25 -368 -3 -193 -6 -858 -7 -1478 l-1 -1128 3868 1
c2127 1 4097 4 4377 8 281 3 518 2 528 -2 11 -5 24 -4 32 3 8 7 19 9 25 5 5
-3 10 -1 10 4 0 6 5 11 11 11 5 0 7 -4 4 -10 -11 -17 42 -22 167 -16 68 3 132
5 143 4 11 0 39 -1 63 0 23 0 48 0 55 0 6 0 140 -2 296 -5 l283 -5 -7 189 c-9
237 -15 277 -38 281 -29 6 -47 -17 -47 -59 0 -22 -4 -39 -10 -39 -5 0 -10 10
-10 23 0 13 -7 32 -15 43 -13 18 -14 16 -15 -22 0 -27 7 -50 20 -67 12 -15 20
-40 20 -65 0 -64 -30 -128 -42 -91 -3 9 -10 9 -23 1 -28 -14 -421 -20 -435 -6
-6 6 -15 48 -20 95 -10 84 -28 118 -54 101 -6 -4 -22 -7 -35 -7 -18 0 -27 -7
-31 -25 -7 -29 -26 -35 -62 -21 -22 8 -27 18 -31 58 -5 48 -33 169 -44 186 -9
15 -33 -44 -33 -82 0 -20 -4 -41 -9 -47 -6 -5 -11 -34 -13 -64 -4 -67 -25 -77
-65 -31 -23 26 -35 31 -70 31 -30 0 -45 -5 -51 -17 -9 -17 -1 -113 13 -159 4
-12 2 -25 -4 -28 -6 -4 -11 -2 -11 3 0 6 -4 11 -10 11 -5 0 -10 -21 -10 -47
l0 -48 -26 33 c-14 17 -32 32 -40 32 -8 0 -14 6 -12 12 1 7 -1 26 -5 41 -6 21
-12 27 -26 22 -11 -3 -26 4 -42 21 -13 14 -50 46 -81 71 l-58 44 0 114 c0 98
2 115 17 124 17 9 17 13 -1 78 -24 92 -33 218 -16 238 11 13 10 18 -3 28 -9 7
-17 25 -19 40 -2 15 -7 28 -13 28 -5 0 -12 -13 -13 -28 -2 -15 -9 -34 -14 -41
-8 -9 -8 -16 0 -24 7 -7 12 -25 12 -41 0 -25 -3 -28 -27 -25 l-28 3 -3 115
c-2 63 2 139 8 168 9 43 9 56 -2 69 -10 13 -14 147 -19 667 -4 358 -12 1007
-19 1441 -15 917 -14 868 -25 1655 -4 333 -5 631 -1 663 5 39 15 67 32 87 38
44 43 89 25 225 -17 138 -14 245 9 280 26 40 26 89 -1 106 -20 14 -21 28 -36
579 -9 311 -13 582 -9 602 11 58 41 88 87 88 21 0 39 5 39 10 0 19 -47 59 -77
66 -49 12 -63 32 -63 91 0 35 -5 55 -13 59 -9 3 -12 17 -7 47 3 23 2 66 -2 95
-7 40 -5 59 8 83 12 24 13 37 5 58 -6 14 -15 63 -21 109 -6 46 -14 90 -17 98
-12 32 -23 -1 -23 -70 0 -48 -8 -96 -22 -142 l-23 -69 -3 40 c-2 22 -10 43
-17 48 -8 4 -12 14 -9 22 3 8 -6 25 -19 39 -23 23 -25 31 -20 83 5 47 11 63
34 85 29 27 37 52 20 62 -5 3 -12 48 -16 98 -7 106 -13 131 -26 123 -12 -8
-12 -52 1 -60 6 -3 10 -12 10 -18 -1 -7 -10 -1 -20 12 -21 25 -27 71 -10 71 7
0 7 6 1 18 -12 23 -25 250 -16 292 5 21 10 28 15 20 4 -7 12 -10 18 -6 12 7 4
46 -9 46 -5 0 -9 7 -9 15 0 9 -6 12 -15 9 -12 -5 -15 2 -15 28 0 19 5 39 12
46 9 9 7 13 -6 18 -30 11 -35 -8 -25 -91 5 -44 8 -136 7 -205 -3 -110 -5 -125
-20 -128 -10 -2 -18 3 -18 10 0 9 -12 14 -32 14 -25 -1 -32 3 -30 16 1 9 -7
22 -18 28 -14 8 -20 21 -20 48 0 45 -17 152 -25 161 -4 3 -11 -2 -16 -12 -13
-22 -46 -22 -58 1 -5 9 -15 47 -22 82 -14 66 -22 80 -49 80 -11 -1 -10 -4 4
-15 11 -8 17 -18 13 -22 -8 -7 -44 23 -58 49 -5 9 -14 62 -20 118 -11 97 -24
130 -52 130 -8 0 -7 -4 1 -12 18 -18 14 -32 -5 -17 -20 17 -43 70 -43 100 0
11 9 32 19 45 16 21 18 37 15 122 -2 53 -4 97 -5 97 -1 0 -3 13 -5 29 -4 35
-12 45 -24 26 -19 -31 -25 8 -28 183 -3 199 -14 260 -22 127 l-5 -85 -18 33
c-10 18 -21 62 -24 97 -6 62 -5 65 18 74 40 15 50 33 39 72 -6 18 -10 51 -10
71 0 26 -7 44 -22 58 -17 16 -23 34 -25 73 -12 327 -17 417 -24 410 -5 -5 -9
-100 -10 -211 0 -114 -5 -202 -10 -202 -9 0 -13 14 -10 38 1 6 -3 12 -9 12 -5
0 -10 9 -10 20 0 11 -6 20 -13 20 -8 0 -19 19 -26 42 -7 23 -20 52 -28 65 -8
12 -18 46 -22 75 -5 42 -10 53 -24 52 -10 -1 -17 5 -17 15 0 9 -9 34 -20 56
-11 22 -20 49 -20 61 0 12 -7 27 -15 34 -8 7 -15 24 -15 39 0 14 -7 35 -15 45
-8 11 -15 37 -15 57 0 21 -4 41 -10 44 -5 3 -10 22 -10 42 0 26 -7 43 -26 60
-21 19 -25 31 -21 56 2 18 -1 36 -8 42 -17 14 -56 139 -49 158 3 8 1 18 -5 22
-6 3 -11 24 -11 46 0 22 -6 47 -14 55 -8 8 -17 46 -21 91 -4 43 -12 83 -17 90
-5 7 -7 26 -3 44 4 17 2 41 -3 53 -6 11 -16 59 -22 106 -7 47 -14 102 -17 123
-7 53 3 87 27 87 13 0 20 7 20 19 0 21 -35 51 -60 51 -8 0 -31 8 -50 18 -19
10 -43 16 -52 14z m42 -728 c0 -8 -4 -12 -10 -9 -5 3 -10 13 -10 21 0 8 5 12
10 9 6 -3 10 -13 10 -21z m140 -214 c0 -5 -4 -10 -10 -10 -5 0 -10 5 -10 10 0
6 5 10 10 10 6 0 10 -4 10 -10z m-80 -80 c0 -5 -7 -10 -16 -10 -8 0 -12 5 -9
10 3 6 10 10 16 10 5 0 9 -4 9 -10z m220 -100 c0 -5 -4 -10 -10 -10 -5 0 -10
5 -10 10 0 6 5 10 10 10 6 0 10 -4 10 -10z m-83 -122 c-3 -8 -6 -5 -6 6 -1 11
2 17 5 13 3 -3 4 -12 1 -19z m-94 -86 c-15 -11 -19 -11 -21 3 -2 9 -1 24 3 33
6 15 8 15 21 -3 13 -18 13 -21 -3 -33z m-180 -23 c3 -13 1 -19 -6 -16 -15 5
-22 37 -9 37 5 0 12 -9 15 -21z m-190 -33 c6 -15 -1 -26 -15 -26 -4 0 -8 9 -8
20 0 23 15 27 23 6z m577 -22 c0 -22 -2 -25 -15 -14 -17 14 -21 35 -5 25 6 -3
10 -1 10 4 0 6 2 11 5 11 3 0 5 -12 5 -26z m-24 -112 c-13 -12 -17 8 -10 40
l9 33 3 -33 c2 -19 1 -36 -2 -40z m34 44 c0 -3 -4 -8 -10 -11 -5 -3 -10 -1
-10 4 0 6 5 11 10 11 6 0 10 -2 10 -4z m-84 -83 c-4 -4 -11 -1 -16 7 -16 25
-11 35 7 17 9 -9 13 -20 9 -24z m-66 -7 c0 -5 -7 -3 -15 4 -8 7 -12 17 -9 22
7 10 24 -9 24 -26z m-65 -5 c3 -6 -3 -15 -14 -20 -25 -14 -31 -14 -31 -1 0 6
7 10 16 10 8 0 12 5 9 10 -3 6 -2 10 4 10 5 0 12 -4 16 -9z m45 -5 c0 -11 -19
-15 -25 -6 -3 5 1 10 9 10 9 0 16 -2 16 -4z m-175 -17 c11 -17 -1 -21 -15 -4
-8 9 -8 15 -2 15 6 0 14 -5 17 -11z m45 -8 c0 -6 -4 -13 -10 -16 -5 -3 -10 1
-10 9 0 9 5 16 10 16 6 0 10 -4 10 -9z m-120 -8 c0 -5 -5 -15 -10 -23 -8 -12
-10 -11 -10 8 0 12 5 22 10 22 6 0 10 -3 10 -7z m55 -13 c-3 -5 -11 -10 -16
-10 -6 0 -7 5 -4 10 3 6 11 10 16 10 6 0 7 -4 4 -10z m-227 -33 c2 -12 -1 -15
-12 -11 -19 7 -22 38 -3 32 6 -3 13 -12 15 -21z m132 13 c0 -5 -4 -10 -10 -10
-5 0 -10 5 -10 10 0 6 5 10 10 10 6 0 10 -4 10 -10z m-200 -10 c0 -5 -4 -10
-10 -10 -5 0 -10 5 -10 10 0 6 5 10 10 10 6 0 10 -4 10 -10z m295 -10 c-3 -5
-11 -10 -16 -10 -6 0 -7 5 -4 10 3 6 11 10 16 10 6 0 7 -4 4 -10z m372 -122
c-2 -13 -4 -5 -4 17 -1 22 1 32 4 23 2 -10 2 -28 0 -40z m-149 -158 l17 -25 6
65 c3 36 6 -18 6 -120 0 -158 -1 -168 -6 -71 -6 113 -6 113 -38 140 -27 23
-33 34 -33 68 0 71 13 85 22 23 5 -30 16 -66 26 -80z m102 51 c0 -46 -19 -75
-40 -61 -13 8 -12 10 3 10 14 0 17 9 17 51 0 31 4 48 10 44 6 -3 10 -23 10
-44z m-229 -77 c19 -17 19 -16 20 47 2 60 12 -89 22 -317 3 -86 1 -105 -14
-125 -21 -28 -39 -17 -21 11 8 13 12 71 12 174 0 152 0 155 -26 186 l-27 31
-23 -22 c-26 -25 -32 -15 -9 15 8 11 15 31 15 45 0 14 3 37 7 51 6 21 9 17 16
-26 5 -30 16 -59 28 -70z m288 38 c1 -20 -3 -31 -9 -27 -5 3 -10 27 -9 53 0
35 3 42 9 27 5 -11 9 -35 9 -53z m-641 -194 c-2 -208 -3 -218 -8 -95 l-5 137
-32 20 c-23 14 -33 27 -33 44 0 39 18 40 26 1 10 -55 34 -45 34 14 0 48 9 111
16 111 2 0 3 -105 2 -232z m231 119 c8 -8 11 6 12 54 l2 64 7 -50 c5 -27 9
-118 9 -201 1 -102 5 -154 13 -162 9 -9 9 -12 0 -12 -19 0 -14 -25 8 -45 26
-23 25 -35 -1 -35 -11 0 -18 4 -15 9 4 5 2 11 -4 13 -6 2 -13 70 -17 166 -5
140 -9 167 -25 188 -11 13 -26 24 -35 24 -11 0 -14 6 -9 23 3 12 6 36 7 52 0
26 3 22 19 -23 10 -30 23 -59 29 -65z m-159 51 c0 -15 5 -30 11 -34 7 -4 7
-10 1 -16 -19 -19 -32 3 -32 55 0 37 3 48 10 37 5 -8 10 -27 10 -42z m-125 2
c-3 -5 -10 -10 -16 -10 -5 0 -9 5 -9 10 0 6 7 10 16 10 8 0 12 -4 9 -10z m182
-260 l0 -145 -12 150 c-6 83 -15 159 -20 169 -6 14 -5 17 3 12 8 -5 12 6 13
36 4 100 17 -81 16 -222z m293 250 c0 -5 -4 -10 -10 -10 -5 0 -10 5 -10 10 0
6 5 10 10 10 6 0 10 -4 10 -10z m-260 -50 c0 -5 -5 -10 -11 -10 -5 0 -7 5 -4
10 3 6 8 10 11 10 2 0 4 -4 4 -10z m478 -52 c11 -11 1 -99 -9 -92 -5 3 -8 38
-8 77 1 40 4 61 6 47 3 -14 8 -28 11 -32z m-598 22 c0 -5 -7 -10 -16 -10 -8 0
-12 5 -9 10 3 6 10 10 16 10 5 0 9 -4 9 -10z m-233 -22 c-3 -8 -6 -5 -6 6 -1
11 2 17 5 13 3 -3 4 -12 1 -19z m770 -30 c-2 -13 -4 -5 -4 17 -1 22 1 32 4 23
2 -10 2 -28 0 -40z m-710 -101 c-2 -23 -3 -1 -3 48 0 50 1 68 3 42 2 -26 2
-67 0 -90z m43 124 c0 -6 -4 -13 -10 -16 -5 -3 -10 1 -10 9 0 9 5 16 10 16 6
0 10 -4 10 -9z m-136 -62 c12 -61 7 -277 -7 -291 -7 -7 -16 -21 -20 -30 -3
-10 -12 -18 -19 -18 -9 0 -9 3 0 12 8 8 8 17 1 30 -6 11 -8 32 -4 46 4 15 6
66 5 114 -2 125 27 218 44 137z m728 -104 c-2 -14 -9 -28 -15 -32 -7 -4 -8 0
-4 11 4 10 7 24 7 32 0 8 4 14 9 14 4 0 6 -11 3 -25z m87 -17 c1 -5 -3 -8 -9
-8 -5 0 -10 12 -9 28 0 24 1 25 9 7 5 -11 9 -23 9 -27z m51 28 c0 -3 -4 -8
-10 -11 -5 -3 -10 -1 -10 4 0 6 5 11 10 11 6 0 10 -2 10 -4z m-819 -162 c2 -7
0 -14 -6 -15 -6 -3 -10 26 -11 71 l-1 75 6 -60 c4 -33 9 -65 12 -71z m769 85
c0 -5 -4 -9 -10 -9 -5 0 -10 7 -10 16 0 8 5 12 10 9 6 -3 10 -10 10 -16z
m-270 1 c0 -5 -4 -10 -10 -10 -5 0 -10 5 -10 10 0 6 5 10 10 10 6 0 10 -4 10
-10z m190 -5 c0 -8 -7 -15 -16 -15 -14 0 -14 3 -4 15 7 8 14 15 16 15 2 0 4
-7 4 -15z m155 5 c-3 -5 -11 -10 -16 -10 -6 0 -7 5 -4 10 3 6 11 10 16 10 6 0
7 -4 4 -10z m-202 -30 c3 -13 0 -20 -9 -20 -8 0 -14 9 -14 20 0 11 4 20 9 20
5 0 11 -9 14 -20z m91 11 c3 -5 -1 -11 -9 -15 -9 -3 -15 0 -15 9 0 16 16 20
24 6z m386 -22 c7 -11 14 -55 17 -97 l6 -77 -21 26 c-15 19 -24 48 -28 98 -7
73 3 93 26 50z m-620 -9 c0 -5 -4 -10 -10 -10 -5 0 -10 5 -10 10 0 6 5 10 10
10 6 0 10 -4 10 -10z m-127 -61 c-5 -19 -7 -19 -15 -5 -10 18 -2 39 12 31 4
-3 6 -15 3 -26z m-88 -9 c-5 -8 -11 -8 -17 -2 -6 6 -7 16 -3 22 5 8 11 8 17 2
6 -6 7 -16 3 -22z m-85 -16 c0 -19 -16 -18 -24 2 -11 27 -7 37 9 24 8 -7 15
-19 15 -26z m-322 -13 c2 -21 0 -31 -7 -27 -6 4 -8 13 -5 20 3 8 1 17 -5 21
-15 9 -14 28 2 23 6 -3 13 -19 15 -37z m232 4 c10 -13 9 -15 -11 -14 -13 0
-18 3 -11 6 6 2 10 9 6 14 -9 15 2 10 16 -6z m934 0 c3 -8 1 -15 -4 -15 -6 0
-10 7 -10 15 0 8 2 15 4 15 2 0 6 -7 10 -15z m-1026 -7 c15 -15 15 -28 1 -28
-15 0 -39 26 -32 34 9 9 18 7 31 -6z m-68 -38 c0 -5 -12 -10 -27 -10 -22 0
-25 2 -13 10 20 13 40 13 40 0z m1155 -31 c10 -30 0 -33 -13 -4 -6 14 -7 25
-2 25 5 0 12 -9 15 -21z m32 -51 c-3 -8 -6 -5 -6 6 -1 11 2 17 5 13 3 -3 4
-12 1 -19z m-64 -28 c-4 -5 -19 -2 -33 5 -24 14 -24 14 -3 15 12 0 25 6 30 13
5 9 9 7 11 -7 2 -10 0 -22 -5 -26z m-73 20 c0 -5 -2 -10 -4 -10 -3 0 -8 5 -11
10 -3 6 -1 10 4 10 6 0 11 -4 11 -10z m121 -37 c13 -16 12 -17 -3 -4 -10 7
-18 15 -18 17 0 8 8 3 21 -13z m-91 -6 c0 -7 -7 -22 -16 -33 -14 -17 -15 -17
-10 -1 3 10 6 25 6 33 0 8 5 14 10 14 6 0 10 -6 10 -13z m-434 -24 c-10 -10
-19 5 -10 18 6 11 8 11 12 0 2 -7 1 -15 -2 -18z m-31 -43 c-3 -5 -11 -10 -16
-10 -6 0 -7 5 -4 10 3 6 11 10 16 10 6 0 7 -4 4 -10z m-285 -9 c0 -6 -4 -13
-10 -16 -5 -3 -10 1 -10 9 0 9 5 16 10 16 6 0 10 -4 10 -9z m367 -128 c-2 -16
-4 -3 -4 27 0 30 2 43 4 28 2 -16 2 -40 0 -55z m559 36 c3 -6 0 -15 -7 -20
-13 -7 -28 5 -29 24 0 11 28 8 36 -4z m-649 -31 c-3 -7 -5 -2 -5 12 0 14 2 19
5 13 2 -7 2 -19 0 -25z m-308 -35 l-1 -48 -10 34 c-5 18 -7 40 -4 47 10 27 16
14 15 -33z m828 -85 c-2 -24 -4 -7 -4 37 0 44 2 63 4 43 2 -21 2 -57 0 -80z
m-750 70 c-3 -8 -6 -5 -6 6 -1 11 2 17 5 13 3 -3 4 -12 1 -19z m379 -35 c-8
-16 -22 -36 -32 -44 -20 -16 -17 -8 15 44 27 43 40 43 17 0z m-699 -25 c-2
-13 -4 -5 -4 17 -1 22 1 32 4 23 2 -10 2 -28 0 -40z m387 -22 c-3 -9 -10 -16
-15 -16 -6 0 -5 9 1 21 13 24 24 20 14 -5z m653 2 c-3 -8 -6 -5 -6 6 -1 11 2
17 5 13 3 -3 4 -12 1 -19z m-57 -28 c0 -5 -4 -10 -10 -10 -5 0 -10 5 -10 10 0
6 5 10 10 10 6 0 10 -4 10 -10z m-626 -25 c-4 -8 -10 -15 -15 -15 -4 0 -6 7
-3 15 4 8 10 15 15 15 4 0 6 -7 3 -15z m407 -82 c-8 -14 -10 -4 -10 42 l1 60
10 -42 c6 -28 6 -49 -1 -60z m-84 20 c-2 -16 -4 -5 -4 22 0 28 2 40 4 28 2
-13 2 -35 0 -50z m-633 48 c3 -5 -5 -8 -19 -8 -14 0 -22 3 -19 8 3 5 11 9 19
9 8 0 16 -4 19 -9z m1010 -6 c-4 -8 -8 -15 -10 -15 -2 0 -4 7 -4 15 0 8 4 15
10 15 5 0 7 -7 4 -15z m-104 -14 c-10 -20 -30 -37 -30 -26 0 11 25 45 33 45 4
0 3 -9 -3 -19z m-70 -16 c7 -8 8 -15 2 -15 -5 0 -15 7 -22 15 -7 8 -8 15 -2
15 5 0 15 -7 22 -15z m110 5 c0 -5 -4 -10 -10 -10 -5 0 -10 5 -10 10 0 6 5 10
10 10 6 0 10 -4 10 -10z m-915 -9 c3 -5 1 -12 -5 -16 -5 -3 -10 1 -10 9 0 18
6 21 15 7z m361 -99 c-14 -13 -17 11 -10 60 l9 53 3 -54 c2 -29 1 -56 -2 -59z
m-454 76 c-7 -7 -12 -8 -12 -2 0 14 12 26 19 19 2 -3 -1 -11 -7 -17z m-297
-28 c-9 -18 -19 -30 -22 -27 -3 3 3 19 13 36 23 39 30 32 9 -9z m47 18 c-7 -7
-12 -8 -12 -2 0 14 12 26 19 19 2 -3 -1 -11 -7 -17z m1118 18 c0 -3 -4 -8 -10
-11 -5 -3 -10 -1 -10 4 0 6 5 11 10 11 6 0 10 -2 10 -4z m-490 -15 c0 -6 -4
-13 -10 -16 -5 -3 -10 1 -10 9 0 9 5 16 10 16 6 0 10 -4 10 -9z m685 -21 c-3
-5 -11 -10 -16 -10 -6 0 -7 5 -4 10 3 6 11 10 16 10 6 0 7 -4 4 -10z m-537
-12 c17 -17 15 -31 -4 -24 -9 4 -23 1 -30 -5 -17 -14 -18 -5 -4 22 12 22 21
24 38 7z m112 2 c0 -5 -4 -10 -10 -10 -5 0 -10 5 -10 10 0 6 5 10 10 10 6 0
10 -4 10 -10z m370 0 c0 -5 -4 -10 -10 -10 -5 0 -10 5 -10 10 0 6 5 10 10 10
6 0 10 -4 10 -10z m-913 -37 c-3 -10 -5 -4 -5 12 0 17 2 24 5 18 2 -7 2 -21 0
-30z m488 27 c3 -5 -1 -10 -10 -10 -9 0 -13 5 -10 10 3 6 8 10 10 10 2 0 7 -4
10 -10z m375 6 c0 -3 -4 -8 -10 -11 -5 -3 -10 -1 -10 4 0 6 5 11 10 11 6 0 10
-2 10 -4z m-95 -16 c-3 -5 -11 -10 -16 -10 -6 0 -7 5 -4 10 3 6 11 10 16 10 6
0 7 -4 4 -10z m-858 -22 c-3 -8 -6 -5 -6 6 -1 11 2 17 5 13 3 -3 4 -12 1 -19z
m313 3 c-10 -20 -30 -37 -30 -26 0 11 25 45 33 45 4 0 3 -9 -3 -19z m450 -1
c0 -5 -2 -10 -4 -10 -3 0 -8 5 -11 10 -3 6 -1 10 4 10 6 0 11 -4 11 -10z m50
0 c0 -5 -2 -10 -4 -10 -3 0 -8 5 -11 10 -3 6 -1 10 4 10 6 0 11 -4 11 -10z
m-580 -10 c0 -5 -4 -10 -10 -10 -5 0 -10 5 -10 10 0 6 5 10 10 10 6 0 10 -4
10 -10z m165 0 c-3 -5 -10 -10 -16 -10 -5 0 -9 5 -9 10 0 6 7 10 16 10 8 0 12
-4 9 -10z m325 0 c0 -5 -7 -10 -16 -10 -8 0 -12 5 -9 10 3 6 10 10 16 10 5 0
9 -4 9 -10z m-58 -22 c-7 -7 -12 -8 -12 -2 0 14 12 26 19 19 2 -3 -1 -11 -7
-17z m-895 -50 c-2 -13 -4 -3 -4 22 0 25 2 35 4 23 2 -13 2 -33 0 -45z m373
58 c0 -3 -4 -8 -10 -11 -5 -3 -10 -1 -10 4 0 6 5 11 10 11 6 0 10 -2 10 -4z
m490 0 c0 -3 -4 -8 -10 -11 -5 -3 -10 -1 -10 4 0 6 5 11 10 11 6 0 10 -2 10
-4z m-937 -58 c4 -29 3 -48 -3 -48 -6 0 -10 23 -10 52 0 62 5 60 13 -4z m562
42 c-3 -5 -11 -10 -16 -10 -6 0 -7 5 -4 10 3 6 11 10 16 10 6 0 7 -4 4 -10z
m320 0 c-3 -5 -11 -10 -16 -10 -6 0 -7 5 -4 10 3 6 11 10 16 10 6 0 7 -4 4
-10z m-546 -32 c-8 -14 -14 -18 -17 -10 -4 13 17 46 25 38 3 -2 -1 -15 -8 -28z
m131 11 c-7 -11 -14 -19 -16 -16 -7 7 7 37 17 37 6 0 5 -9 -1 -21z m45 11 c3
-5 2 -10 -4 -10 -5 0 -13 5 -16 10 -3 6 -2 10 4 10 5 0 13 -4 16 -10z m335 6
c0 -11 -19 -15 -25 -6 -3 5 1 10 9 10 9 0 16 -2 16 -4z m-569 -27 c8 -15 8
-24 0 -32 -8 -8 -11 -6 -11 6 0 24 -15 21 -28 -5 -9 -19 -11 -20 -11 -5 -1 23
17 57 29 57 5 0 14 -9 21 -21z m109 11 c0 -5 -5 -10 -11 -10 -5 0 -7 5 -4 10
3 6 8 10 11 10 2 0 4 -4 4 -10z m405 0 c-3 -5 -11 -10 -16 -10 -6 0 -7 5 -4
10 3 6 11 10 16 10 6 0 7 -4 4 -10z m-95 -10 c0 -5 -5 -10 -11 -10 -5 0 -7 5
-4 10 3 6 8 10 11 10 2 0 4 -4 4 -10z m47 4 c-3 -3 -12 -4 -19 -1 -8 3 -5 6 6
6 11 1 17 -2 13 -5z m-546 -14 c5 0 9 -4 9 -10 0 -16 -37 -11 -44 6 -5 12 -2
15 10 10 8 -3 20 -6 25 -6z m399 -10 c0 -5 -5 -10 -11 -10 -5 0 -7 5 -4 10 3
6 8 10 11 10 2 0 4 -4 4 -10z m-35 -10 c3 -5 -1 -10 -9 -10 -9 0 -16 5 -16 10
0 6 4 10 9 10 6 0 13 -4 16 -10z m-410 -10 c3 -5 1 -10 -4 -10 -6 0 -11 5 -11
10 0 6 2 10 4 10 3 0 8 -4 11 -10z m319 1 c3 -5 -1 -11 -9 -15 -15 -6 -29 7
-18 18 9 9 21 8 27 -3z m-573 -24 c-13 -13 -26 -3 -16 12 3 6 11 8 17 5 6 -4
6 -10 -1 -17z m159 13 c0 -5 -5 -10 -11 -10 -5 0 -7 5 -4 10 3 6 8 10 11 10 2
0 4 -4 4 -10z m360 0 c0 -5 -5 -10 -11 -10 -5 0 -7 5 -4 10 3 6 8 10 11 10 2
0 4 -4 4 -10z m-757 -55 c-3 -37 -17 -65 -34 -65 -13 0 -11 67 2 91 16 31 34
17 32 -26z m307 24 c0 -6 -4 -7 -10 -4 -5 3 -10 11 -10 16 0 6 5 7 10 4 6 -3
10 -11 10 -16z m360 6 c0 -8 -4 -15 -10 -15 -5 0 -10 7 -10 15 0 8 5 15 10 15
6 0 10 -7 10 -15z m-35 -5 c-3 -5 -10 -10 -16 -10 -5 0 -9 5 -9 10 0 6 7 10
16 10 8 0 12 -4 9 -10z m-55 -10 c0 -5 -5 -10 -11 -10 -5 0 -7 5 -4 10 3 6 8
10 11 10 2 0 4 -4 4 -10z m-140 -20 c0 -5 -5 -10 -11 -10 -5 0 -7 5 -4 10 3 6
8 10 11 10 2 0 4 -4 4 -10z m-40 -10 c0 -5 -4 -10 -10 -10 -5 0 -10 5 -10 10
0 6 5 10 10 10 6 0 10 -4 10 -10z m-50 -10 c0 -5 -4 -10 -10 -10 -5 0 -10 5
-10 10 0 6 5 10 10 10 6 0 10 -4 10 -10z m-94 -27 c-10 -10 -19 5 -10 18 6 11
8 11 12 0 2 -7 1 -15 -2 -18z m-86 -3 c0 -5 -5 -10 -11 -10 -5 0 -7 5 -4 10 3
6 8 10 11 10 2 0 4 -4 4 -10z m50 6 c0 -3 -4 -8 -10 -11 -5 -3 -10 -1 -10 4 0
6 5 11 10 11 6 0 10 -2 10 -4z m-90 -16 c0 -5 -4 -10 -10 -10 -5 0 -10 5 -10
10 0 6 5 10 10 10 6 0 10 -4 10 -10z m-90 -10 c0 -5 -5 -10 -11 -10 -5 0 -7 5
-4 10 3 6 8 10 11 10 2 0 4 -4 4 -10z m-59 -36 c-19 -25 -21 -25 -21 -6 0 12
8 25 17 31 26 14 28 5 4 -25z m1449 -89 c0 -8 -4 -15 -10 -15 -5 0 -10 7 -10
15 0 8 5 15 10 15 6 0 10 -7 10 -15z m25 -45 c4 -6 -6 -10 -24 -10 -16 0 -33
-4 -36 -10 -3 -5 -12 -10 -18 -10 -7 1 -1 10 12 20 25 22 56 26 66 10z m-39
-55 c-21 -16 -32 -13 -21 4 3 6 14 11 23 11 15 -1 15 -2 -2 -15z m869 -17 c25
-11 30 -19 19 -31 -9 -9 -41 9 -48 28 -7 18 -4 18 29 3z m-1035 -29 c0 -11 -4
-18 -10 -14 -5 3 -7 12 -3 20 7 21 13 19 13 -6z m798 -1 c19 -19 14 -29 -8
-16 -20 13 -27 28 -12 28 4 0 13 -5 20 -12z m-58 -2 c0 -2 -8 -10 -17 -17 -16
-13 -17 -12 -4 4 13 16 21 21 21 13z m-1243 -38 c-3 -7 -5 -2 -5 12 0 14 2 19
5 13 2 -7 2 -19 0 -25z m112 -29 c-13 -26 -23 -18 -14 10 3 12 11 19 16 16 5
-4 5 -14 -2 -26z m409 -16 c9 -7 34 -13 56 -14 l41 -1 -31 -10 c-25 -8 -40 -6
-70 8 -51 23 -49 21 -33 40 10 13 14 13 17 3 2 -8 11 -20 20 -26z m152 13 c0
-3 -4 -8 -10 -11 -5 -3 -10 -1 -10 4 0 6 5 11 10 11 6 0 10 -2 10 -4z m-673
-58 c-3 -8 -6 -5 -6 6 -1 11 2 17 5 13 3 -3 4 -12 1 -19z m329 1 c19 -21 19
-21 -9 -8 -24 11 -30 10 -52 -11 -14 -13 -27 -21 -30 -18 -6 6 52 58 64 58 4
0 16 -9 27 -21z m151 4 c-9 -9 -19 -14 -23 -11 -10 10 6 28 24 28 15 0 15 -1
-1 -17z m-755 -25 c-9 -9 -12 -7 -12 12 0 19 3 21 12 12 9 -9 9 -15 0 -24z
m-378 13 c3 -5 -5 -11 -19 -13 -20 -4 -23 -3 -14 8 13 16 25 18 33 5z m1063 3
c-3 -3 -12 -4 -19 -1 -8 3 -5 6 6 6 11 1 17 -2 13 -5z m283 -9 c10 -12 10 -18
0 -30 -14 -17 -40 -20 -40 -5 0 6 7 10 15 10 18 0 19 12 3 28 -8 8 -8 12 -1
12 6 0 16 -7 23 -15z m-1305 -6 c11 -17 -1 -21 -15 -4 -8 9 -8 15 -2 15 6 0
14 -5 17 -11z m741 -10 c19 -22 19 -22 -4 -10 -13 7 -30 10 -38 7 -8 -3 -14
-1 -14 3 0 8 15 18 31 20 3 1 14 -9 25 -20z m-595 -22 c-8 -8 -11 -7 -11 4 0
9 3 19 7 23 4 4 9 2 11 -4 3 -7 -1 -17 -7 -23z m989 23 c0 -5 -2 -10 -4 -10
-3 0 -8 5 -11 10 -3 6 -1 10 4 10 6 0 11 -4 11 -10z m85 -11 c-15 -5 -32 -6
-37 -3 -4 3 -8 -16 -9 -43 0 -42 -2 -45 -10 -23 -18 43 -8 74 26 81 42 7 67
-3 30 -12z m-257 -29 c17 0 15 -8 -9 -42 -23 -32 -38 -32 -18 0 10 17 10 23 0
36 -18 22 -34 20 -59 -7 l-22 -23 25 -24 c25 -24 33 -50 15 -50 -5 0 -10 6
-10 14 0 7 -10 25 -21 40 l-22 27 34 35 33 34 21 -20 c12 -11 27 -20 33 -20z
m-151 24 c-3 -3 -12 -4 -19 -1 -8 3 -5 6 6 6 11 1 17 -2 13 -5z m-263 -17 c18
-10 39 -12 73 -6 27 4 55 8 63 8 34 1 -16 -17 -67 -24 -39 -5 -57 -3 -74 8
-19 14 -24 13 -65 -16 -24 -17 -46 -28 -50 -25 -3 4 7 13 23 22 16 8 35 22 42
30 16 19 22 20 55 3z m576 3 c0 -5 -7 -10 -16 -10 -8 0 -12 5 -9 10 3 6 10 10
16 10 5 0 9 -4 9 -10z m-45 -38 c16 -23 16 -25 1 -13 -15 13 -19 13 -27 0 -7
-12 -9 -11 -9 3 0 9 -3 24 -6 32 -9 25 18 10 41 -22z m122 6 c-3 -8 -6 -5 -6
6 -1 11 2 17 5 13 3 -3 4 -12 1 -19z m123 12 c0 -5 -4 -10 -10 -10 -5 0 -10 5
-10 10 0 6 5 10 10 10 6 0 10 -4 10 -10z m-963 -26 c18 -16 21 -22 8 -15 -32
15 -61 40 -48 41 7 0 25 -12 40 -26z m-527 -63 c0 -72 -2 -80 -21 -86 -34 -11
-59 20 -59 73 0 50 28 92 62 92 16 0 18 -9 18 -79z m984 58 c-3 -5 -10 -7 -15
-3 -5 3 -7 10 -3 15 3 5 10 7 15 3 5 -3 7 -10 3 -15z m96 11 c0 -5 -4 -10 -10
-10 -5 0 -10 5 -10 10 0 6 5 10 10 10 6 0 10 -4 10 -10z m960 0 c0 -5 -4 -10
-10 -10 -5 0 -10 5 -10 10 0 6 5 10 10 10 6 0 10 -4 10 -10z m80 6 c0 -3 -4
-8 -10 -11 -5 -3 -10 -1 -10 4 0 6 5 11 10 11 6 0 10 -2 10 -4z m-1718 -42
c36 4 47 3 33 -3 -44 -21 -135 -7 -135 20 0 5 11 2 25 -7 18 -12 38 -14 77
-10z m443 5 c-4 -13 0 -28 11 -42 10 -12 4 -9 -14 7 -37 34 -39 43 -14 49 9 3
18 5 20 6 2 0 0 -8 -3 -20z m91 -6 c-10 -10 -19 5 -10 18 6 11 8 11 12 0 2 -7
1 -15 -2 -18z m1144 17 c0 -5 -4 -10 -10 -10 -5 0 -10 5 -10 10 0 6 5 10 10
10 6 0 10 -4 10 -10z m-1190 -4 c0 -3 -4 -8 -10 -11 -5 -3 -10 -1 -10 4 0 6 5
11 10 11 6 0 10 -2 10 -4z m-159 -49 c-13 -12 -20 -15 -16 -7 14 26 28 41 33
35 3 -3 -5 -16 -17 -28z m58 21 c0 -7 -4 -22 -9 -33 -7 -17 -9 -15 -9 13 -1
17 4 32 9 32 6 0 10 -6 9 -12z m236 2 c3 -5 1 -10 -4 -10 -6 0 -11 5 -11 10 0
6 2 10 4 10 3 0 8 -4 11 -10z m1015 -11 c0 -5 -4 -9 -10 -9 -5 0 -10 7 -10 16
0 8 5 12 10 9 6 -3 10 -10 10 -16z m-1475 -5 c18 5 25 2 25 -8 0 -9 -6 -13
-14 -10 -8 3 -17 0 -21 -6 -5 -8 -13 -6 -26 6 -22 20 -26 42 -4 24 8 -7 25
-10 40 -6z m125 -4 c0 -5 -4 -10 -10 -10 -5 0 -10 5 -10 10 0 6 5 10 10 10 6
0 10 -4 10 -10z m546 -17 c-10 -10 -19 5 -10 18 6 11 8 11 12 0 2 -7 1 -15 -2
-18z m54 17 c0 -5 -4 -10 -10 -10 -5 0 -10 5 -10 10 0 6 5 10 10 10 6 0 10 -4
10 -10z m790 -5 c0 -8 -7 -15 -15 -15 -9 0 -12 6 -9 15 4 8 10 15 15 15 5 0 9
-7 9 -15z m-1429 -12 c13 -16 12 -17 -3 -4 -10 7 -18 15 -18 17 0 8 8 3 21
-13z m804 7 c-3 -5 -10 -10 -16 -10 -5 0 -9 5 -9 10 0 6 7 10 16 10 8 0 12 -4
9 -10z m-995 -15 c-11 -13 -8 -21 16 -48 l29 -32 -35 33 c-20 17 -47 32 -60
32 -45 0 -10 19 54 29 5 0 3 -6 -4 -14z m632 -17 c-9 -9 -12 -7 -12 12 0 19 3
21 12 12 9 -9 9 -15 0 -24z m-584 11 c-2 -6 -8 -10 -13 -10 -5 0 -11 4 -13 10
-2 6 4 11 13 11 9 0 15 -5 13 -11z m872 2 c0 -12 -20 -25 -27 -18 -7 7 6 27
18 27 5 0 9 -4 9 -9z m-1020 -22 c0 -18 -2 -19 -15 -9 -8 7 -15 16 -15 21 0 5
7 9 15 9 9 0 15 -9 15 -21z m690 11 c0 -5 -4 -10 -10 -10 -5 0 -10 5 -10 10 0
6 5 10 10 10 6 0 10 -4 10 -10z m-743 -31 c-6 -10 -13 -15 -15 -9 -6 17 7 42
18 35 6 -4 5 -13 -3 -26z m948 1 c-5 -8 -11 -8 -17 -2 -6 6 -7 16 -3 22 5 8
11 8 17 2 6 -6 7 -16 3 -22z m35 15 c0 -8 -4 -15 -10 -15 -5 0 -10 7 -10 15 0
8 5 15 10 15 6 0 10 -7 10 -15z m-100 -4 c0 -5 -7 -11 -15 -15 -15 -5 -20 5
-8 17 9 10 23 9 23 -2z m-1075 -11 c-3 -5 -10 -10 -16 -10 -5 0 -9 5 -9 10 0
6 7 10 16 10 8 0 12 -4 9 -10z m134 -12 c-1 -17 -2 -19 -6 -5 -5 20 -24 22
-41 5 -7 -7 -12 -8 -12 -2 0 17 11 24 37 24 18 0 23 -5 22 -22z m651 18 c0 -3
-4 -8 -10 -11 -5 -3 -10 -1 -10 4 0 6 5 11 10 11 6 0 10 -2 10 -4z m-40 -16
c0 -5 -4 -10 -9 -10 -6 0 -13 5 -16 10 -3 6 1 10 9 10 9 0 16 -4 16 -10z m240
1 c0 -6 -4 -13 -10 -16 -5 -3 -10 1 -10 9 0 9 5 16 10 16 6 0 10 -4 10 -9z
m1153 -6 c-3 -9 -8 -14 -10 -11 -3 3 -2 9 2 15 9 16 15 13 8 -4z m-1203 -10
c0 -8 -4 -15 -10 -15 -5 0 -10 7 -10 15 0 8 5 15 10 15 6 0 10 -7 10 -15z
m410 11 c0 -3 -4 -8 -10 -11 -5 -3 -10 -1 -10 4 0 6 5 11 10 11 6 0 10 -2 10
-4z m-1130 -10 c0 -13 -33 -34 -45 -30 -22 9 -18 26 4 19 11 -3 22 -1 26 5 6
10 15 14 15 6z m330 -11 c0 -8 -4 -15 -10 -15 -5 0 -10 7 -10 15 0 8 5 15 10
15 6 0 10 -7 10 -15z m40 5 c0 -5 -4 -10 -10 -10 -5 0 -10 5 -10 10 0 6 5 10
10 10 6 0 10 -4 10 -10z m285 0 c3 -5 -1 -10 -10 -10 -9 0 -13 5 -10 10 3 6 8
10 10 10 2 0 7 -4 10 -10z m1095 0 c0 -5 -7 -10 -16 -10 -8 0 -12 5 -9 10 3 6
10 10 16 10 5 0 9 -4 9 -10z m-1970 -16 c0 -17 -22 -14 -28 4 -2 7 3 12 12 12
9 0 16 -7 16 -16z m787 -16 c-3 -7 -5 -2 -5 12 0 14 2 19 5 13 2 -7 2 -19 0
-25z m-37 13 c0 -6 -4 -13 -10 -16 -5 -3 -10 1 -10 9 0 9 5 16 10 16 6 0 10
-4 10 -9z m-350 -11 c0 -5 -5 -10 -11 -10 -5 0 -7 5 -4 10 3 6 8 10 11 10 2 0
4 -4 4 -10z m280 0 c0 -5 -5 -10 -11 -10 -5 0 -7 5 -4 10 3 6 8 10 11 10 2 0
4 -4 4 -10z m-320 -10 c0 -5 -4 -10 -10 -10 -5 0 -10 5 -10 10 0 6 5 10 10 10
6 0 10 -4 10 -10z m233 -15 c-7 -21 -13 -19 -13 6 0 11 4 18 10 14 5 -3 7 -12
3 -20z m757 15 c0 -5 -4 -10 -10 -10 -5 0 -10 5 -10 10 0 6 5 10 10 10 6 0 10
-4 10 -10z m-790 -21 c0 -5 -4 -9 -10 -9 -5 0 -10 7 -10 16 0 8 5 12 10 9 6
-3 10 -10 10 -16z m722 -526 c2 -302 0 -549 -4 -551 -4 -2 -2 -14 4 -27 12
-27 2 -94 -15 -100 -7 -3 -156 -25 -332 -50 -176 -25 -437 -64 -580 -85 -143
-22 -266 -40 -274 -40 -12 0 -13 86 -8 597 4 328 9 599 12 601 9 9 1114 200
1167 201 l27 1 3 -547z m763 537 c3 -5 1 -10 -4 -10 -6 0 -11 5 -11 10 0 6 2
10 4 10 3 0 8 -4 11 -10z m175 0 c0 -5 -5 -10 -11 -10 -5 0 -7 5 -4 10 3 6 8
10 11 10 2 0 4 -4 4 -10z m-2055 -19 c3 -5 1 -12 -5 -16 -5 -3 -10 1 -10 9 0
18 6 21 15 7z m45 -1 c0 -5 -4 -10 -10 -10 -5 0 -10 5 -10 10 0 6 5 10 10 10
6 0 10 -4 10 -10z m275 0 c-3 -5 -10 -10 -16 -10 -5 0 -9 5 -9 10 0 6 7 10 16
10 8 0 12 -4 9 -10z m878 -11 c-19 -20 -43 -19 -43 1 0 7 18 13 55 19 5 0 0
-9 -12 -20z m-1473 4 c0 -14 -19 -38 -25 -32 -8 8 5 39 16 39 5 0 9 -3 9 -7z
m466 -20 c-10 -10 -19 5 -10 18 6 11 8 11 12 0 2 -7 1 -15 -2 -18z m52 15 c-6
-18 -28 -21 -28 -4 0 9 7 16 16 16 9 0 14 -5 12 -12z m-113 -18 c-3 -5 -13
-10 -21 -10 -8 0 -12 5 -9 10 3 6 13 10 21 10 8 0 12 -4 9 -10z m-125 -26 c0
-8 -4 -12 -10 -9 -5 3 -10 10 -10 16 0 5 5 9 10 9 6 0 10 -7 10 -16z m-174
-21 c-10 -10 -19 5 -10 18 6 11 8 11 12 0 2 -7 1 -15 -2 -18z m114 17 c0 -5
-7 -10 -15 -10 -8 0 -15 5 -15 10 0 6 7 10 15 10 8 0 15 -4 15 -10z m1240 -25
c0 -8 -4 -15 -9 -15 -5 0 -11 7 -15 15 -3 9 0 15 9 15 8 0 15 -7 15 -15z m760
-28 c0 -5 -4 -5 -10 -2 -5 3 -10 14 -10 23 0 15 2 15 10 2 5 -8 10 -19 10 -23z
m-140 13 c0 -5 -4 -10 -10 -10 -5 0 -10 5 -10 10 0 6 5 10 10 10 6 0 10 -4 10
-10z m99 -82 c36 -44 20 -33 -34 24 -28 28 -36 41 -20 27 17 -13 41 -36 54
-51z m-721 43 c3 -8 -1 -12 -9 -9 -7 2 -15 10 -17 17 -3 8 1 12 9 9 7 -2 15
-10 17 -17z m837 9 c3 -5 1 -10 -4 -10 -6 0 -11 5 -11 10 0 6 2 10 4 10 3 0 8
-4 11 -10z m-2185 -10 c0 -5 -5 -10 -11 -10 -5 0 -7 5 -4 10 3 6 8 10 11 10 2
0 4 -4 4 -10z m1974 -5 c-4 -8 -8 -15 -10 -15 -2 0 -4 7 -4 15 0 8 4 15 10 15
5 0 7 -7 4 -15z m-626 -44 c3 -8 -1 -12 -9 -9 -7 2 -15 10 -17 17 -3 8 1 12 9
9 7 -2 15 -10 17 -17z m-1352 -18 c-10 -10 -19 5 -10 18 6 11 8 11 12 0 2 -7
1 -15 -2 -18z m1352 -31 c2 -7 -3 -12 -12 -12 -9 0 -16 7 -16 16 0 17 22 14
28 -4z m-1348 -7 c0 -8 -4 -15 -10 -15 -5 0 -10 7 -10 15 0 8 5 15 10 15 6 0
10 -7 10 -15z m2250 -6 c0 -6 -4 -7 -10 -4 -5 3 -10 11 -10 16 0 6 5 7 10 4 6
-3 10 -11 10 -16z m-90 -35 c12 -13 10 -14 -14 -3 -21 10 -35 10 -57 2 -16 -6
-29 -8 -29 -3 0 23 82 26 100 4z m-2160 -20 c0 -14 -3 -14 -15 -4 -8 7 -15 14
-15 16 0 2 7 4 15 4 8 0 15 -7 15 -16z m1345 5 c11 -17 -1 -21 -15 -4 -8 9 -8
15 -2 15 6 0 14 -5 17 -11z m629 -14 c-4 -8 -8 -15 -10 -15 -2 0 -4 7 -4 15 0
8 4 15 10 15 5 0 7 -7 4 -15z m-34 -25 c0 -5 -4 -10 -10 -10 -5 0 -10 5 -10
10 0 6 5 10 10 10 6 0 10 -4 10 -10z m86 -27 c-8 -15 -15 -22 -16 -15 0 17 20
55 27 49 2 -3 -2 -18 -11 -34z m-2026 11 c0 -14 -3 -14 -15 -4 -8 7 -15 14
-15 16 0 2 7 4 15 4 8 0 15 -7 15 -16z m1348 -2 c6 -18 -15 -14 -22 4 -4 10
-1 14 6 12 6 -2 14 -10 16 -16z m887 -2 c10 -11 16 -20 13 -20 -3 0 -13 9 -23
20 -10 11 -16 20 -13 20 3 0 13 -9 23 -20z m-2240 -41 c11 -17 -1 -21 -15 -4
-8 9 -8 15 -2 15 6 0 14 -5 17 -11z m1347 -21 c-7 -7 -12 -8 -12 -2 0 14 12
26 19 19 2 -3 -1 -11 -7 -17z m638 8 c0 -3 -4 -8 -10 -11 -5 -3 -10 -1 -10 4
0 6 5 11 10 11 6 0 10 -2 10 -4z m355 -46 c21 -22 37 -40 34 -40 -3 0 -23 18
-44 40 -21 22 -37 40 -34 40 3 0 23 -18 44 -40z m-205 10 c0 -5 -9 -6 -20 -3
-11 3 -20 9 -20 13 0 5 9 6 20 3 11 -3 20 -9 20 -13z m-2132 -8 c6 -18 -15
-14 -22 4 -4 10 -1 14 6 12 6 -2 14 -10 16 -16z m1942 9 c0 -6 -4 -13 -10 -16
-5 -3 -10 1 -10 9 0 9 5 16 10 16 6 0 10 -4 10 -9z m-590 -21 c0 -5 -4 -10 -9
-10 -6 0 -13 5 -16 10 -3 6 1 10 9 10 9 0 16 -4 16 -10z m768 -31 c-10 -7 -10
-11 0 -21 6 -6 12 -19 12 -27 -1 -30 -30 21 -30 52 0 25 2 28 15 17 13 -11 13
-15 3 -21z m-2105 0 c-11 -12 -26 -18 -32 -15 -16 10 -14 26 3 20 8 -3 17 -1
21 5 3 6 11 11 18 11 6 0 2 -10 -10 -21z m1927 -9 c0 -5 -2 -10 -4 -10 -3 0
-8 5 -11 10 -3 6 -1 10 4 10 6 0 11 -4 11 -10z m130 -8 c0 -11 -8 -18 -20 -19
-17 -2 -18 1 -10 18 13 24 30 25 30 1z m-90 -6 c0 -3 -4 -8 -10 -11 -5 -3 -10
-1 -10 4 0 6 5 11 10 11 6 0 10 -2 10 -4z m-1950 -26 c0 -5 -6 -10 -14 -10 -8
0 -16 -5 -18 -12 -2 -6 -10 -8 -17 -4 -9 6 -8 11 6 22 21 16 43 18 43 4z
m2180 -72 c0 -10 -4 -18 -9 -18 -10 0 -16 16 -26 70 l-6 35 20 -35 c11 -19 20
-43 21 -52z m-149 25 c-8 -15 -10 -15 -11 -2 0 17 10 32 18 25 2 -3 -1 -13 -7
-23z m-2031 -3 c0 -5 -2 -10 -4 -10 -3 0 -8 5 -11 10 -3 6 -1 10 4 10 6 0 11
-4 11 -10z m-24 -32 c28 -30 17 -30 -18 0 -16 13 -24 32 -15 32 2 0 16 -14 33
-32z m1340 -5 c-10 -10 -19 5 -10 18 6 11 8 11 12 0 2 -7 1 -15 -2 -18z m687
-58 c-4 -24 -9 -33 -16 -26 -6 6 -7 29 -2 58 6 40 9 44 16 26 4 -12 5 -38 2
-58z m417 61 c0 -3 -4 -8 -10 -11 -5 -3 -10 -1 -10 4 0 6 5 11 10 11 6 0 10
-2 10 -4z m-2452 -45 c3 -8 -1 -12 -9 -9 -7 2 -15 10 -17 17 -3 8 1 12 9 9 7
-2 15 -10 17 -17z m1350 0 c3 -8 -1 -12 -9 -9 -7 2 -15 10 -17 17 -3 8 1 12 9
9 7 -2 15 -10 17 -17z m902 -51 c14 -60 7 -92 -8 -35 -23 85 -25 98 -14 92 5
-4 15 -29 22 -57z m-70 48 c0 -2 -7 -21 -15 -43 -12 -35 -14 -36 -15 -13 0 32
9 58 21 58 5 0 9 -1 9 -2z m-833 -43 c8 -22 -6 -33 -17 -15 -13 20 -12 30 0
30 6 0 13 -7 17 -15z m773 -54 c-1 -10 -6 -7 -15 9 -19 33 -18 50 0 26 8 -11
15 -27 15 -35z m80 39 c0 -5 -5 -10 -11 -10 -5 0 -7 5 -4 10 3 6 8 10 11 10 2
0 4 -4 4 -10z m-220 -40 c0 -5 -5 -10 -11 -10 -5 0 -7 5 -4 10 3 6 8 10 11 10
2 0 4 -4 4 -10z m-630 -10 c0 -5 -4 -10 -9 -10 -6 0 -13 5 -16 10 -3 6 1 10 9
10 9 0 16 -4 16 -10z m868 -13 c3 -13 0 -14 -22 -4 -16 8 -21 14 -13 19 17 11
31 4 35 -15z m-179 -89 c1 -16 -3 -28 -9 -28 -6 0 -10 24 -9 53 1 41 3 47 9
27 4 -14 8 -37 9 -52z m164 50 c20 -16 35 -98 18 -98 -12 0 -15 12 -11 44 1
10 -11 29 -27 42 -19 16 -23 23 -12 24 8 0 23 -6 32 -12z m-853 -8 c0 -5 -4
-10 -10 -10 -5 0 -10 5 -10 10 0 6 5 10 10 10 6 0 10 -4 10 -10z m636 -36 c-4
-9 -9 -15 -11 -12 -3 3 -3 13 1 22 4 9 9 15 11 12 3 -3 3 -13 -1 -22z m-1996
6 c0 -5 -2 -10 -4 -10 -3 0 -8 5 -11 10 -3 6 -1 10 4 10 6 0 11 -4 11 -10z
m2298 -58 c9 -66 -1 -88 -12 -24 -7 45 -8 97 -1 90 3 -2 9 -32 13 -66z m-198
47 c0 7 4 10 10 6 6 -4 6 -15 0 -31 -14 -35 -12 -44 5 -44 8 0 15 -4 15 -10 0
-15 -26 -12 -39 4 -6 7 -9 20 -5 29 3 8 0 26 -7 39 -11 21 -11 22 4 9 12 -9
17 -10 17 -2z m-742 -18 c3 -8 -1 -12 -9 -9 -7 2 -15 10 -17 17 -3 8 1 12 9 9
7 -2 15 -10 17 -17z m-1323 -1 c3 -5 1 -10 -4 -10 -6 0 -11 5 -11 10 0 6 2 10
4 10 3 0 8 -4 11 -10z m1323 -49 c3 -8 -1 -12 -9 -9 -7 2 -15 10 -17 17 -3 8
1 12 9 9 7 -2 15 -10 17 -17z m634 -53 c-7 -7 -12 -8 -12 -2 0 14 12 26 19 19
2 -3 -1 -11 -7 -17z m138 -15 c0 -20 -24 -11 -28 10 -2 12 1 15 12 11 9 -3 16
-13 16 -21z m-770 7 c0 -5 -4 -10 -10 -10 -5 0 -10 5 -10 10 0 6 5 10 10 10 6
0 10 -4 10 -10z m797 -12 c-3 -8 -6 -5 -6 6 -1 11 2 17 5 13 3 -3 4 -12 1 -19z
m-71 -32 c8 -48 -1 -68 -15 -33 -14 35 -14 67 -1 67 5 0 12 -16 16 -34z m134
2 c0 -5 -4 -8 -10 -8 -5 0 -10 10 -10 23 0 18 2 19 10 7 5 -8 10 -18 10 -22z
m-2220 12 c0 -5 -2 -10 -4 -10 -3 0 -8 5 -11 10 -3 6 -1 10 4 10 6 0 11 -4 11
-10z m1992 -12 c-7 -7 -12 -8 -12 -2 0 14 12 26 19 19 2 -3 -1 -11 -7 -17z
m138 -9 c0 -5 -4 -9 -10 -9 -5 0 -10 7 -10 16 0 8 5 12 10 9 6 -3 10 -10 10
-16z m73 -34 c11 -5 23 -17 25 -25 5 -13 3 -13 -11 -2 -14 12 -20 11 -39 -2
-32 -23 -38 -20 -38 17 0 41 8 51 28 35 8 -7 23 -17 35 -23z m47 5 c0 -5 -4
-10 -10 -10 -5 0 -10 5 -10 10 0 6 5 10 10 10 6 0 10 -4 10 -10z m-250 -10 c0
-5 -4 -10 -10 -10 -5 0 -10 5 -10 10 0 6 5 10 10 10 6 0 10 -4 10 -10z m-630
-24 c0 -3 -4 -8 -10 -11 -5 -3 -10 -1 -10 4 0 6 5 11 10 11 6 0 10 -2 10 -4z
m1036 -103 c-7 -98 -20 -161 -34 -175 -5 -5 -4 16 4 48 7 31 16 92 20 135 4
44 9 79 12 79 3 0 2 -39 -2 -87z m-2406 67 c0 -5 -4 -10 -10 -10 -5 0 -10 5
-10 10 0 6 5 10 10 10 6 0 10 -4 10 -10z m2000 1 c0 -6 -4 -13 -10 -16 -5 -3
-10 1 -10 9 0 9 5 16 10 16 6 0 10 -4 10 -9z m212 -23 c-7 -7 -12 -8 -12 -2 0
14 12 26 19 19 2 -3 -1 -11 -7 -17z m-842 2 c0 -5 -4 -10 -10 -10 -5 0 -10 5
-10 10 0 6 5 10 10 10 6 0 10 -4 10 -10z m782 -50 c4 0 8 -9 8 -20 0 -30 -17
-24 -29 11 -14 40 -13 61 1 32 6 -13 15 -23 20 -23z m-2152 20 c0 -5 -4 -10
-10 -10 -5 0 -10 5 -10 10 0 6 5 10 10 10 6 0 10 -4 10 -10z m2278 -43 c-2
-17 -8 -32 -14 -34 -12 -4 -22 40 -16 70 6 31 33 -2 30 -36z m-278 39 c0 -3
-4 -8 -10 -11 -5 -3 -10 -1 -10 4 0 6 5 11 10 11 6 0 10 -2 10 -4z m-40 -37
c0 -6 -4 -7 -10 -4 -5 3 -10 11 -10 16 0 6 5 7 10 4 6 -3 10 -11 10 -16z
m-1970 -4 c20 -24 6 -28 -15 -5 -10 11 -13 20 -8 20 6 0 16 -7 23 -15z m2219
-7 c5 -13 12 -34 16 -48 6 -23 6 -24 -9 -10 -16 16 -34 80 -22 80 4 0 10 -10
15 -22z m-839 3 c0 -12 -20 -25 -27 -18 -7 7 6 27 18 27 5 0 9 -4 9 -9z m-96
-22 c9 7 23 10 33 7 14 -6 12 -9 -11 -21 -35 -19 -66 -19 -66 -2 0 20 13 29
21 15 6 -9 11 -9 23 1z m-144 -29 c0 -11 -4 -20 -10 -20 -5 0 -10 9 -10 20 0
11 5 20 10 20 6 0 10 -9 10 -20z m1000 -13 c0 -5 -4 -5 -10 -2 -5 3 -10 14
-10 23 0 15 2 15 10 2 5 -8 10 -19 10 -23z m-1072 11 c-6 -16 -34 -22 -56 -12
-14 6 -11 9 13 14 45 11 47 11 43 -2z m32 -3 c0 -8 -4 -15 -10 -15 -5 0 -7 7
-4 15 4 8 8 15 10 15 2 0 4 -7 4 -15z m-1090 -5 c0 -5 -4 -10 -9 -10 -6 0 -13
5 -16 10 -3 6 1 10 9 10 9 0 16 -4 16 -10z m907 -25 c-4 -8 -11 -15 -17 -15
-7 0 -7 6 0 21 13 23 26 19 17 -6z m43 -1 c0 -8 -4 -12 -10 -9 -5 3 -10 13
-10 21 0 8 5 12 10 9 6 -3 10 -13 10 -21z m-93 -6 c-3 -8 -6 -5 -6 6 -1 11 2
17 5 13 3 -3 4 -12 1 -19z m1263 -32 c0 -5 -13 3 -30 19 -16 16 -30 30 -30 32
0 2 14 -6 30 -19 17 -12 30 -26 30 -32z m-1323 22 c-3 -8 -6 -5 -6 6 -1 11 2
17 5 13 3 -3 4 -12 1 -19z m43 12 c0 -5 -4 -10 -10 -10 -5 0 -10 5 -10 10 0 6
5 10 10 10 6 0 10 -4 10 -10z m-95 -30 c-5 -8 -11 -8 -17 -2 -6 6 -7 16 -3 22
5 8 11 8 17 2 6 -6 7 -16 3 -22z m-117 3 c-4 -24 -48 -30 -48 -7 0 13 3 14 15
4 12 -10 15 -10 15 4 0 9 5 16 11 16 6 0 9 -8 7 -17z m67 -2 c-3 -6 -11 -8
-17 -5 -6 4 -5 9 3 15 16 10 23 4 14 -10z m-695 -6 c0 -8 -4 -15 -10 -15 -5 0
-10 7 -10 15 0 8 5 15 10 15 6 0 10 -7 10 -15z m660 5 c0 -5 -4 -10 -10 -10
-5 0 -10 5 -10 10 0 6 5 10 10 10 6 0 10 -4 10 -10z m-93 -15 c-2 -5 -12 -10
-22 -10 -10 0 -20 5 -22 10 -1 6 8 10 22 10 14 0 24 -4 22 -10z m-77 -4 c0
-11 -49 -21 -55 -11 -2 4 -2 10 2 14 10 9 53 7 53 -3z m-113 -13 c6 16 23 15
23 -2 0 -16 -27 -29 -41 -20 -5 3 -9 13 -9 22 0 15 2 15 11 2 8 -11 12 -12 16
-2z m-37 -2 c0 -3 -4 -8 -10 -11 -5 -3 -10 -1 -10 4 0 6 5 11 10 11 6 0 10 -2
10 -4z m-40 -15 c0 -17 -20 -23 -48 -15 l-27 7 30 7 c44 11 45 11 45 1z m-160
-17 c0 -11 -6 -15 -20 -11 -11 3 -20 1 -20 -4 0 -5 -6 -9 -12 -9 -14 1 29 40
43 40 5 0 9 -7 9 -16z m60 1 c-7 -8 -17 -15 -22 -15 -6 0 -5 7 2 15 7 8 17 15
22 15 6 0 5 -7 -2 -15z m2047 -1 c7 3 13 1 13 -4 0 -16 -56 -11 -70 5 -11 14
-10 14 15 5 16 -6 34 -9 42 -6z m-2247 -14 c0 -5 -7 -10 -16 -10 -8 0 -12 5
-9 10 3 6 10 10 16 10 5 0 9 -4 9 -10z m2350 -20 c-6 -12 -14 -19 -17 -17 -2
3 1 15 7 27 6 12 14 19 17 17 2 -3 -1 -15 -7 -27z m130 20 c0 -5 -4 -10 -10
-10 -5 0 -10 5 -10 10 0 6 5 10 10 10 6 0 10 -4 10 -10z m-180 -49 c0 -4 -11
-6 -25 -3 -14 2 -25 6 -25 8 0 2 11 4 25 4 14 0 25 -4 25 -9z m20 -56 c13 -14
19 -25 14 -25 -8 1 -50 50 -41 50 2 0 14 -11 27 -25z m-983 -211 c-3 -3 -12
-4 -19 -1 -8 3 -5 6 6 6 11 1 17 -2 13 -5z m-584 -81 c-7 -2 -19 -2 -25 0 -7
3 -2 5 12 5 14 0 19 -2 13 -5z m-4202 -4305 c-9 -31 -9 -31 -10 -6 -1 30 11
67 16 51 2 -6 0 -26 -6 -45z m546 -145 c-3 -10 -5 -4 -5 12 0 17 2 24 5 18 2
-7 2 -21 0 -30z m70 -15 c-3 -8 -6 -5 -6 6 -1 11 2 17 5 13 3 -3 4 -12 1 -19z
m1163 -23 c0 -14 -4 -25 -10 -25 -11 0 -14 33 -3 43 11 11 13 8 13 -18z m-664
-113 c-12 -11 -18 7 -10 30 l8 23 4 -23 c2 -13 1 -26 -2 -30z m664 6 c0 -5 -4
-8 -10 -8 -5 0 -10 10 -10 23 0 18 2 19 10 7 5 -8 10 -18 10 -22z m-415 -8 c3
-5 1 -10 -4 -10 -6 0 -11 5 -11 10 0 6 2 10 4 10 3 0 8 -4 11 -10z m145 0 c0
-5 -2 -10 -4 -10 -3 0 -8 5 -11 10 -3 6 -1 10 4 10 6 0 11 -4 11 -10z m1060
-46 c0 -14 -4 -22 -10 -19 -5 3 -10 17 -10 31 0 14 4 22 10 19 6 -3 10 -17 10
-31z m-1000 -22 c0 -9 -5 -24 -10 -32 -7 -11 -10 -5 -10 23 0 23 4 36 10 32 6
-3 10 -14 10 -23z m995 -32 c3 -5 -1 -10 -9 -10 -9 0 -16 5 -16 10 0 6 4 10 9
10 6 0 13 -4 16 -10z m-118 -52 c-3 -8 -6 -5 -6 6 -1 11 2 17 5 13 3 -3 4 -12
1 -19z m3659 -1305 c-7 -17 -8 -17 -17 0 -12 21 -2 44 13 29 6 -6 8 -19 4 -29z
m114 -27 c0 -3 -4 -8 -10 -11 -5 -3 -10 -1 -10 4 0 6 5 11 10 11 6 0 10 -2 10
-4z"/>
<path d="M6930 8184 c-41 -7 -117 -21 -167 -30 -51 -9 -93 -19 -93 -23 0 -8
120 -41 150 -41 12 0 18 -4 15 -10 -3 -5 2 -10 12 -11 29 -1 151 -146 189
-224 18 -38 34 -61 34 -50 0 19 -35 89 -74 148 -34 50 -7 28 33 -30 l41 -56
-1 49 c-1 27 -4 63 -8 79 -4 17 -3 40 3 53 7 18 6 26 -4 32 -12 7 -12 12 -2
22 14 14 16 32 3 24 -5 -3 -12 1 -15 10 -10 25 -7 34 9 28 11 -5 15 1 15 20 0
23 -4 26 -32 25 -18 -1 -67 -7 -108 -15z m0 -44 c-6 -11 -8 -20 -5 -20 3 0 1
-9 -5 -21 -15 -28 -4 -73 16 -65 8 3 17 -1 21 -10 10 -26 -3 -26 -36 1 -33 28
-39 53 -19 73 9 9 9 15 0 24 -17 17 -15 26 6 31 31 8 33 7 22 -13z m100 0 c0
-5 -4 -10 -10 -10 -5 0 -10 5 -10 10 0 6 5 10 10 10 6 0 10 -4 10 -10z m-38
-30 c11 0 18 -7 18 -20 0 -11 -6 -20 -14 -20 -20 0 -46 28 -46 48 0 12 3 13
12 4 7 -7 20 -12 30 -12z m8 -90 c0 -5 -5 -10 -11 -10 -5 0 -7 5 -4 10 3 6 8
10 11 10 2 0 4 -4 4 -10z"/>
<path d="M6516 8108 c-152 -15 -275 -77 -402 -203 -72 -72 -99 -107 -132 -172
-79 -159 -93 -328 -39 -482 36 -104 85 -173 165 -231 101 -75 154 -92 292 -92
63 0 135 5 160 12 25 7 65 12 90 11 25 0 86 6 135 15 50 9 126 20 170 24 44 4
87 11 95 14 13 5 16 41 18 224 l2 217 -18 -50 c-43 -116 -106 -209 -205 -301
-73 -68 -182 -142 -193 -131 -3 3 26 24 65 47 49 28 71 47 71 60 0 11 28 50
61 87 34 38 68 78 76 90 8 12 24 25 35 29 25 8 71 107 92 198 41 175 0 353
-110 475 -112 125 -252 177 -428 159z m227 -77 c11 -11 0 -51 -14 -51 -5 0 -9
8 -7 17 3 20 -20 27 -132 42 -75 10 -74 10 34 6 60 -2 113 -8 119 -14z m-382
-47 l-95 -45 26 -25 c25 -25 26 -26 58 -9 51 26 46 10 -6 -19 -54 -30 -54 -30
-54 -12 0 7 -7 19 -15 26 -37 31 -1 70 103 111 88 34 77 19 -17 -27z m176 20
c-3 -3 -12 -4 -19 -1 -8 3 -5 6 6 6 11 1 17 -2 13 -5z m57 -9 c-6 -16 -34 -21
-34 -7 0 13 11 22 26 22 8 0 11 -6 8 -15z m46 0 c0 -8 -7 -15 -15 -15 -16 0
-20 12 -8 23 11 12 23 8 23 -8z m50 -4 c0 -23 -16 -36 -25 -21 -9 14 1 40 15
40 5 0 10 -9 10 -19z m172 -24 c52 -39 105 -94 97 -101 -52 -39 -83 -47 -50
-13 l21 24 -49 46 c-28 26 -62 52 -76 59 -14 6 -25 15 -25 20 0 18 27 6 82
-35z m-422 9 c0 -16 -18 -31 -27 -22 -8 8 5 36 17 36 5 0 10 -6 10 -14z m-50
-21 c0 -8 -7 -15 -15 -15 -16 0 -20 12 -8 23 11 12 23 8 23 -8z m400 6 c0 -6
-4 -13 -10 -16 -5 -3 -10 1 -10 9 0 9 5 16 10 16 6 0 10 -4 10 -9z m-97 -17
c9 -3 17 -9 17 -14 0 -4 -15 -4 -32 1 -18 4 -51 13 -73 18 -38 10 -37 10 15 5
30 -3 63 -8 73 -10z m-353 -14 c0 -21 -15 -27 -25 -10 -7 12 2 30 16 30 5 0 9
-9 9 -20z m136 11 c-8 -12 -46 -21 -46 -11 0 5 8 11 18 13 29 8 33 7 28 -2z
m344 -5 c0 -8 -4 -17 -9 -21 -12 -7 -24 12 -16 25 9 15 25 12 25 -4z m32 -38
c-6 -6 -14 -9 -17 -6 -3 3 -3 13 1 22 5 12 10 14 17 7 8 -8 8 -14 -1 -23z
m-612 -19 l21 -41 -25 -31 c-52 -66 -107 -122 -95 -97 7 13 34 47 60 76 l49
51 -28 26 -27 26 -45 -54 c-52 -63 -59 -78 -35 -73 10 2 20 -3 23 -11 4 -11
-2 -13 -26 -8 -31 6 -52 -6 -32 -18 12 -7 14 -25 3 -25 -5 0 -14 4 -21 9 -12
7 -11 13 1 38 14 26 143 173 153 173 2 0 13 -18 24 -41z m428 35 l31 -6 -20
-39 c-18 -36 -23 -39 -60 -39 -59 0 -79 14 -79 55 l0 35 49 0 c27 0 62 -3 79
-6z m-205 -45 c-2 -36 -28 -65 -71 -76 -19 -4 -29 0 -43 18 -10 13 -17 29 -16
34 4 13 108 66 122 62 5 -2 9 -19 8 -38z m389 -26 c53 -55 26 -45 -37 13 -46
42 -52 51 -27 37 18 -10 47 -32 64 -50z m-61 5 c29 -24 54 -48 56 -54 2 -6
-12 -23 -32 -38 l-35 -27 -39 30 c-55 44 -62 38 -16 -11 l40 -42 -42 33 c-24
18 -46 37 -49 43 -9 14 37 108 52 108 7 0 37 -19 65 -42z m109 33 c0 -13 -26
-32 -33 -24 -8 7 11 33 24 33 5 0 9 -4 9 -9z m-390 -32 c0 -5 -4 -9 -10 -9 -5
0 -10 7 -10 16 0 8 5 12 10 9 6 -3 10 -10 10 -16z m-302 -16 c-4 -22 -22 -20
-26 1 -2 10 3 16 13 16 10 0 15 -7 13 -17z m804 -57 c22 -57 37 -151 28 -166
-4 -6 -10 9 -13 34 -6 39 -26 106 -52 170 -6 14 -4 17 6 14 8 -3 22 -26 31
-52z m-459 37 c-7 -2 -19 -2 -25 0 -7 3 -2 5 12 5 14 0 19 -2 13 -5z m-383
-18 c0 -8 -7 -15 -15 -15 -16 0 -20 12 -8 23 11 12 23 8 23 -8z m470 5 c0 -13
-11 -13 -30 0 -12 8 -11 10 8 10 12 0 22 -4 22 -10z m-340 -24 c7 -14 10 -31
7 -40 -4 -11 -1 -13 11 -9 14 6 15 4 4 -9 -7 -9 -24 -19 -37 -22 -13 -3 -30
-16 -36 -29 -9 -18 -9 -20 2 -9 22 21 30 13 13 -13 l-16 -25 -28 20 c-16 11
-33 20 -39 20 -25 0 -4 55 39 104 37 42 61 46 80 12z m117 -2 c-27 -14 -51
-23 -54 -20 -7 6 68 45 87 45 8 0 -7 -11 -33 -25z m-77 6 c0 -5 -2 -10 -4 -10
-3 0 -8 5 -11 10 -3 6 -1 10 4 10 6 0 11 -4 11 -10z m204 -22 l-19 -22 32 22
c31 22 63 29 63 15 0 -5 -14 -21 -32 -36 -34 -30 -23 -27 24 5 36 25 60 23 90
-9 58 -62 78 -103 78 -159 l0 -54 -37 0 c-35 0 -36 0 -18 20 10 11 22 17 26
14 5 -3 9 -1 9 4 0 22 -16 19 -48 -9 -29 -26 -40 -30 -66 -24 -17 5 -45 7 -62
7 -19 -1 -42 6 -55 18 l-24 19 40 2 c24 1 31 3 18 6 -13 2 -23 7 -23 11 0 3
10 17 23 30 l22 25 -22 -12 c-12 -6 -25 -16 -28 -21 -3 -6 -13 -10 -21 -10
-11 0 -13 7 -8 28 7 24 6 26 -9 13 -16 -12 -17 -9 -17 39 0 43 -3 51 -15 46
-9 -3 -18 1 -22 11 -9 24 24 43 75 43 l45 0 -19 -22z m401 -115 c5 -46 4 -45
-20 27 -29 88 -31 123 -4 63 11 -23 21 -63 24 -90z m35 113 c0 -20 -19 -31
-32 -18 -6 6 -7 15 -4 21 10 16 36 13 36 -3z m-80 -67 c28 -73 21 -92 -34 -97
-38 -3 -36 -5 -62 67 -2 8 -7 12 -9 9 -3 -3 0 -19 6 -36 6 -17 9 -37 7 -43 -2
-6 -11 12 -20 40 l-16 51 46 34 c26 19 50 35 53 35 4 1 17 -27 29 -60z m-503
7 c-4 -30 -2 -47 7 -55 7 -6 15 -8 18 -5 4 3 9 -14 13 -38 4 -24 12 -49 17
-55 13 -16 8 -16 -34 1 -41 18 -50 12 -65 -36 -9 -30 -8 -38 2 -38 7 0 18 -7
25 -15 7 -9 21 -13 31 -10 14 5 19 1 19 -14 0 -14 5 -19 16 -14 8 3 13 12 10
19 -3 8 1 14 8 14 22 0 41 -58 30 -89 -9 -23 -8 -26 13 -27 20 -2 22 0 11 13
-10 12 -9 18 7 29 10 8 28 11 38 8 17 -5 19 -3 13 19 -5 23 -3 26 34 32 22 4
42 11 46 16 10 18 73 10 95 -12 17 -17 23 -19 30 -8 5 8 9 10 9 6 0 -20 -96
-107 -120 -108 l-25 -1 25 -7 24 -7 -34 -26 c-19 -14 -50 -33 -67 -42 -18 -9
-33 -22 -33 -28 0 -7 -27 -9 -88 -6 -89 5 -148 25 -159 54 -3 7 -12 14 -19 14
-8 0 -18 8 -21 18 -4 9 -13 22 -20 27 -8 6 -19 42 -25 82 -8 58 -7 80 6 126
22 77 122 207 160 207 5 0 6 -20 3 -44z m596 9 c-5 -16 -33 -21 -33 -7 0 13
22 32 31 26 5 -2 6 -11 2 -19z m-879 -10 c-4 -8 -8 -15 -10 -15 -2 0 -4 7 -4
15 0 8 4 15 10 15 5 0 7 -7 4 -15z m-54 -36 c0 -5 -6 -9 -14 -9 -17 0 -50 -84
-60 -152 -8 -51 -26 -75 -26 -34 0 37 48 183 66 201 16 15 34 12 34 -6z m944
-9 c-11 -11 -44 -3 -44 10 0 12 33 18 45 8 5 -5 5 -12 -1 -18z m-909 -59 c-8
-23 -17 -64 -21 -91 -4 -28 -11 -50 -16 -50 -14 0 17 144 39 183 13 22 12 -5
-2 -42z m88 33 c10 -4 17 -17 17 -31 0 -22 2 -24 15 -13 9 8 15 9 15 2 0 -6
-10 -18 -21 -26 -16 -11 -20 -22 -17 -43 3 -26 1 -28 -31 -30 -19 -1 -37 -7
-41 -13 -5 -7 -11 -6 -20 4 -10 13 -10 26 -1 62 16 63 40 107 54 100 7 -3 20
-9 30 -12z m-125 -16 c-6 -18 -28 -21 -28 -4 0 9 7 16 16 16 9 0 14 -5 12 -12z
m-13 -48 c3 -6 -1 -13 -10 -16 -19 -8 -30 0 -20 15 8 14 22 14 30 1z m1005
-12 c0 -13 -5 -30 -10 -38 -7 -11 -10 -5 -10 23 0 20 5 37 10 37 6 0 10 -10
10 -22z m-135 -18 c3 -5 0 -10 -7 -10 -7 0 -23 -3 -35 -6 -13 -4 -23 -2 -23 4
0 6 10 13 23 15 12 2 25 5 29 6 4 0 10 -3 13 -9z m45 -4 c0 -8 -4 -18 -10 -21
-5 -3 -10 3 -10 14 0 12 5 21 10 21 6 0 10 -6 10 -14z m-920 -16 c0 -12 -28
-25 -36 -17 -9 9 6 27 22 27 8 0 14 -5 14 -10z m-30 -50 c0 -5 -5 -10 -11 -10
-5 0 -7 5 -4 10 3 6 8 10 11 10 2 0 4 -4 4 -10z m17 -12 c-3 -8 -6 -5 -6 6 -1
11 2 17 5 13 3 -3 4 -12 1 -19z m568 12 c17 -7 15 -9 -12 -9 -18 -1 -33 4 -33
9 0 12 17 12 45 0z m301 -14 c15 -39 -44 -74 -74 -44 -16 16 -15 45 1 51 25
11 68 6 73 -7z m34 -30 c-6 -20 -16 -38 -21 -41 -9 -6 -6 6 13 58 15 40 22 25
8 -17z m65 34 c3 -5 4 -14 0 -20 -8 -13 -35 -1 -35 16 0 16 26 19 35 4z m31
-21 c-8 -41 -45 -124 -52 -116 -6 5 46 147 54 147 3 0 2 -14 -2 -31z m-911 1
c-3 -5 -10 -10 -16 -10 -5 0 -9 5 -9 10 0 6 7 10 16 10 8 0 12 -4 9 -10z m104
-85 c0 -30 -15 1 -23 45 l-6 35 15 -30 c8 -16 14 -39 14 -50z m-124 -80 l6
-30 -15 25 c-17 30 -37 131 -28 145 5 9 19 -43 37 -140z m73 129 c13 -9 22
-26 22 -40 0 -25 -40 -74 -59 -74 -16 0 -31 34 -37 85 -7 45 -6 45 22 45 16 0
40 -7 52 -16z m812 2 c0 -20 -19 -31 -32 -18 -6 6 -7 15 -4 21 10 16 36 13 36
-3z m-996 -45 c4 -27 15 -75 26 -107 22 -64 24 -78 10 -69 -13 8 -60 160 -60
196 0 47 17 33 24 -20z m51 -1 c-3 -5 -13 -10 -21 -10 -8 0 -14 5 -14 10 0 6
9 10 21 10 11 0 17 -4 14 -10z m752 -10 c14 -11 32 -20 39 -20 22 0 17 -14
-26 -68 -51 -64 -64 -68 -90 -32 -24 33 -19 49 24 89 27 26 37 52 11 31 -14
-12 -22 0 -8 13 11 11 24 8 50 -13z m173 5 c0 -8 -4 -15 -10 -15 -5 0 -10 5
-10 11 0 5 -4 7 -10 4 -5 -3 -10 -1 -10 4 0 6 9 11 20 11 11 0 20 -7 20 -15z
m-921 -51 c-6 -7 -15 -11 -21 -8 -5 3 -4 12 3 20 6 7 15 11 21 8 5 -3 4 -12
-3 -20z m838 4 c-2 -7 2 -21 11 -30 8 -10 12 -25 8 -35 -7 -17 -8 -17 -18 2
-16 29 -16 29 -33 15 -19 -16 -19 -30 0 -30 8 0 15 -7 15 -15 0 -17 -16 -20
-25 -5 -9 15 -35 12 -35 -4 0 -8 7 -17 16 -20 14 -5 14 -9 3 -22 -11 -14 -15
-13 -31 8 l-18 23 0 -30 c-1 -26 -2 -28 -11 -12 -8 14 -7 23 3 35 8 9 36 43
62 75 48 57 62 68 53 45z m-182 -18 c-10 -11 -20 -18 -23 -15 -7 6 18 35 31
35 5 0 2 -9 -8 -20z m224 11 c8 -5 9 -11 3 -15 -5 -3 -15 1 -22 9 -14 16 -3
20 19 6z m-849 -30 c0 -6 -5 -13 -10 -16 -15 -9 -43 3 -35 15 8 13 45 13 45 1z
m200 -28 c17 -12 25 -13 28 -5 3 9 9 9 25 0 l21 -11 -21 -8 c-12 -4 -32 -28
-45 -53 l-23 -45 -44 41 -44 41 34 28 c40 34 38 33 69 12z m380 -3 c4 0 10
-10 13 -22 3 -13 8 -32 12 -44 6 -18 -2 -24 -53 -47 -33 -15 -64 -27 -70 -27
-15 0 -22 39 -12 65 12 31 28 39 45 25 12 -10 15 -9 15 4 0 9 7 16 15 16 8 0
15 5 15 10 0 6 -7 10 -16 10 -8 0 -12 5 -9 11 4 6 14 8 22 5 8 -3 18 -6 23 -6z
m350 -5 c0 -8 -4 -15 -10 -15 -5 0 -7 7 -4 15 4 8 8 15 10 15 2 0 4 -7 4 -15z
m-920 -5 c0 -5 -7 -10 -16 -10 -8 0 -12 5 -9 10 3 6 10 10 16 10 5 0 9 -4 9
-10z m615 -20 c3 -5 1 -10 -4 -10 -6 0 -11 5 -11 10 0 6 2 10 4 10 3 0 8 -4
11 -10z m-158 -6 c-3 -3 -12 -4 -19 -1 -8 3 -5 6 6 6 11 1 17 -2 13 -5z m-332
-59 c33 -30 54 -55 47 -55 -8 0 -39 25 -70 55 -74 71 -55 71 23 0z m258 48
c-7 -2 -19 -2 -25 0 -7 3 -2 5 12 5 14 0 19 -2 13 -5z m-20 -18 c24 -5 27 -10
27 -45 l0 -40 -63 0 c-35 0 -66 3 -70 6 -8 8 20 76 34 85 11 6 16 6 72 -6z
m607 -6 c0 -6 -4 -7 -10 -4 -5 3 -10 11 -10 16 0 6 5 7 10 4 6 -3 10 -11 10
-16z m-913 -95 c28 -23 60 -47 70 -52 10 -6 15 -13 11 -17 -11 -11 -65 23
-125 79 -56 53 -57 55 -38 70 19 14 20 13 25 -12 3 -15 25 -42 57 -68z m0 66
c-4 -17 -2 -20 14 -15 13 4 19 2 19 -9 0 -21 -17 -29 -39 -17 -35 19 -38 61
-4 61 11 0 14 -6 10 -20z m554 -14 c-16 -19 -159 -79 -174 -72 -7 3 -3 7 9 11
11 4 54 21 95 40 41 18 76 33 78 34 2 1 -2 -5 -8 -13z m284 -6 c3 -5 2 -10 -4
-10 -5 0 -13 5 -16 10 -3 6 -2 10 4 10 5 0 13 -4 16 -10z m-765 -34 c0 -16
-18 -31 -27 -22 -8 8 5 36 17 36 5 0 10 -6 10 -14z m795 4 c-3 -5 -17 -10 -31
-10 -13 0 -24 5 -24 10 0 6 14 10 31 10 17 0 28 -4 24 -10z m-315 -15 c0 -8
-7 -15 -15 -15 -8 0 -15 7 -15 15 0 8 7 15 15 15 8 0 15 -7 15 -15z m236 -20
c6 -19 9 -35 6 -35 -10 0 -31 36 -32 53 0 29 14 19 26 -18z m-596 15 c0 -5 -7
-10 -15 -10 -22 0 -18 -18 5 -25 22 -7 26 -20 9 -30 -5 -4 -22 6 -36 21 -24
26 -24 28 -7 41 21 15 44 17 44 3z m310 -20 c0 -11 -7 -20 -15 -20 -18 0 -19
12 -3 28 16 16 18 15 18 -8z m-202 3 c-16 -2 -40 -2 -55 0 -16 2 -3 4 27 4 30
0 43 -2 28 -4z m287 -13 c-34 -23 -177 -80 -200 -80 -32 0 -13 17 33 29 26 7
74 25 107 41 70 33 103 39 60 10z m-131 1 c3 -5 -1 -14 -8 -20 -16 -13 -32 2
-21 19 8 12 22 13 29 1z m-204 -26 c0 -8 -7 -15 -15 -15 -8 0 -15 7 -15 15 0
8 7 15 15 15 8 0 15 -7 15 -15z m90 11 c0 -3 -4 -8 -10 -11 -5 -3 -10 -1 -10
4 0 6 5 11 10 11 6 0 10 -2 10 -4z m62 -11 c0 -5 -5 -11 -10 -13 -5 -1 -9 4
-9 13 0 9 4 14 9 13 5 -2 10 -8 10 -13z m-104 -7 c-6 -18 -28 -21 -28 -4 0 9
7 16 16 16 9 0 14 -5 12 -12z m-40 -34 c34 -4 65 -11 69 -17 10 -16 -146 -2
-187 17 l-35 16 45 -5 c25 -2 73 -7 108 -11z"/>
<path d="M6650 7720 c-13 -8 -13 -10 2 -10 9 0 20 5 23 10 8 13 -5 13 -25 0z"/>
<path d="M6605 7700 c-3 -5 -1 -10 4 -10 6 0 11 5 11 10 0 6 -2 10 -4 10 -3 0
-8 -4 -11 -10z"/>
<path d="M6630 7660 c-8 -5 -12 -12 -9 -15 4 -3 12 1 19 10 14 17 11 19 -10 5z"/>
<path d="M6624 7595 c-16 -12 -16 -14 -3 -15 9 0 22 7 29 15 16 19 0 19 -26 0z"/>
<path d="M6690 7585 c-8 -9 -8 -15 -2 -15 12 0 26 19 19 26 -2 2 -10 -2 -17
-11z"/>
<path d="M6293 7565 c-18 -8 -33 -16 -33 -19 0 -8 59 15 66 25 7 11 6 11 -33
-6z"/>
<path d="M6278 7500 l-33 -32 35 24 c19 12 37 24 39 25 2 2 2 6 -1 9 -4 3 -21
-9 -40 -26z"/>
<path d="M6254 7418 l-19 -23 23 19 c21 18 27 26 19 26 -2 0 -12 -10 -23 -22z"/>
<path d="M6315 7430 c-3 -5 -2 -10 4 -10 5 0 13 5 16 10 3 6 2 10 -4 10 -5 0
-13 -4 -16 -10z"/>
<path d="M6364 7399 c-19 -22 -19 -22 3 -10 24 12 39 31 25 31 -5 0 -17 -10
-28 -21z"/>
<path d="M6430 7380 c-19 -10 -55 -28 -80 -39 -30 -14 -38 -21 -24 -21 26 0
100 33 134 60 32 25 16 25 -30 0z"/>
<path d="M6276 7374 c-10 -25 1 -29 14 -5 6 12 7 21 1 21 -5 0 -12 -7 -15 -16z"/>
<path d="M6630 7380 c0 -5 14 -10 31 -10 17 0 28 4 24 10 -3 6 -17 10 -31 10
-13 0 -24 -4 -24 -10z"/>
<path d="M6385 7304 c-16 -13 -25 -24 -19 -24 15 0 61 37 54 43 -3 3 -18 -6
-35 -19z"/>
<path d="M6405 7265 c-16 -13 -25 -24 -20 -24 6 0 24 11 40 24 17 14 26 25 20
25 -5 0 -23 -11 -40 -25z"/>
<path d="M6470 7265 c-13 -14 -19 -25 -13 -25 12 0 48 38 41 45 -2 3 -15 -6
-28 -20z"/>
<path d="M6527 7263 c-4 -3 -7 -11 -7 -17 0 -6 5 -5 12 2 6 6 9 14 7 17 -3 3
-9 2 -12 -2z"/>
<path d="M6243 7208 c-23 -30 -24 -41 -2 -21 12 12 20 25 17 28 -3 3 -10 0
-15 -7z"/>
<path d="M6265 8072 c-16 -2 -102 -16 -190 -31 l-160 -27 -3 -190 -2 -189 36
75 c19 41 47 90 61 109 l26 34 -26 -6 c-26 -7 -57 0 -57 12 0 4 20 8 44 8 63
0 76 14 76 82 1 45 3 52 11 38 6 -11 9 -30 6 -43 -5 -30 4 -31 29 -2 19 20
152 112 177 121 20 7 4 12 -28 9z m-238 -68 c-3 -3 -12 -4 -19 -1 -8 3 -5 6 6
6 11 1 17 -2 13 -5z m-37 -44 c0 -5 -7 -10 -15 -10 -8 0 -15 5 -15 10 0 6 7
10 15 10 8 0 15 -4 15 -10z m30 -36 c0 -2 -12 -4 -27 -4 -21 0 -24 3 -14 9 13
8 41 5 41 -5z m-93 -106 c-2 -18 -4 -4 -4 32 0 36 2 50 4 33 2 -18 2 -48 0
-65z"/>
<path d="M5895 7112 c-4 -83 -4 -178 0 -211 8 -71 7 -70 121 -47 38 8 119 20
179 26 136 15 153 23 83 38 -74 17 -148 53 -218 107 -39 30 -60 41 -63 32 -3
-6 -6 -3 -6 8 -1 11 -21 60 -45 108 l-44 89 -7 -150z m22 -79 c-2 -16 -4 -3
-4 27 0 30 2 43 4 28 2 -16 2 -40 0 -55z m0 -65 c-3 -8 -6 -5 -6 6 -1 11 2 17
5 13 3 -3 4 -12 1 -19z m154 -51 c-13 -13 -15 1 -4 30 7 17 8 17 11 -1 2 -10
-1 -23 -7 -29z m-132 -32 c6 -3 11 -10 11 -16 0 -5 -9 -4 -20 3 -12 8 -20 23
-19 38 0 24 1 24 9 4 5 -12 13 -25 19 -29z"/>
<path d="M6943 7242 c-6 -10 -39 -52 -74 -92 -35 -40 -57 -71 -49 -68 15 5
124 129 141 161 13 23 -3 22 -18 -1z"/>
<path d="M7950 7075 c0 -8 5 -15 10 -15 6 0 10 7 10 15 0 8 -4 15 -10 15 -5 0
-10 -7 -10 -15z"/>
<path d="M6950 12332 c0 -12 19 -26 26 -19 2 2 -2 10 -11 17 -9 8 -15 8 -15 2z"/>
<path d="M7132 11301 c2 -7 7 -12 11 -12 12 1 9 15 -3 20 -7 2 -11 -2 -8 -8z"/>
<path d="M6325 11120 c-3 -5 3 -10 15 -10 12 0 18 5 15 10 -3 6 -10 10 -15 10
-5 0 -12 -4 -15 -10z"/>
<path d="M6313 11005 c-15 -13 -23 -25 -17 -25 6 0 21 11 34 25 30 32 19 32
-17 0z"/>
<path d="M6346 10991 c-8 -13 -26 -234 -20 -243 9 -14 26 -8 20 7 -3 9 0 15
10 15 12 0 13 5 7 23 -11 32 -7 160 6 186 10 17 9 21 -3 21 -8 0 -17 -4 -20
-9z"/>
<path d="M7410 10770 c0 -5 5 -10 10 -10 6 0 10 5 10 10 0 6 -4 10 -10 10 -5
0 -10 -4 -10 -10z"/>
<path d="M6286 10715 c-3 -8 -1 -15 4 -15 6 0 10 7 10 15 0 8 -2 15 -4 15 -2
0 -6 -7 -10 -15z"/>
<path d="M7503 10525 c0 -38 2 -53 4 -32 2 20 2 52 0 70 -2 17 -4 1 -4 -38z"/>
<path d="M6265 10368 c-4 -26 -3 -52 1 -60 12 -19 24 47 14 80 -7 25 -8 23
-15 -20z"/>
<path d="M6277 10274 c-4 -4 -7 -14 -7 -23 0 -11 3 -12 11 -4 6 6 10 16 7 23
-2 6 -7 8 -11 4z"/>
<path d="M5732 9531 c-10 -6 -11 -13 -1 -34 14 -31 4 -77 -16 -77 -8 0 -15 5
-15 11 0 5 -4 7 -10 4 -5 -3 -10 -17 -10 -31 0 -22 2 -23 21 -14 11 7 23 10
25 7 3 -2 8 -46 13 -98 l8 -94 2 86 c1 91 6 106 28 87 7 -6 16 -9 18 -6 9 9
-7 38 -20 38 -18 0 -29 73 -16 98 15 28 0 41 -27 23z"/>
<path d="M7992 9014 c1 -9 9 -19 16 -22 9 -3 13 2 10 14 -1 9 -9 19 -16 22 -9
3 -13 -2 -10 -14z"/>
<path d="M8101 8736 c-1 -29 2 -37 10 -29 8 8 8 19 1 40 -10 28 -10 28 -11
-11z"/>
<path d="M190 3574 c0 -8 5 -12 10 -9 6 3 10 10 10 16 0 5 -4 9 -10 9 -5 0
-10 -7 -10 -16z"/>
<path d="M977 3357 c-5 -27 -6 -51 -3 -55 12 -12 17 7 14 54 l-3 49 -8 -48z"/>
<path d="M4320 3209 c0 -37 4 -58 10 -54 6 3 10 31 10 61 0 30 -4 54 -10 54
-6 0 -10 -27 -10 -61z"/>
<path d="M2957 2765 c-4 -8 -2 -17 3 -20 6 -4 10 3 10 14 0 25 -6 27 -13 6z"/>
<path d="M2940 2696 c0 -14 4 -27 9 -30 12 -8 22 20 15 39 -9 23 -24 18 -24
-9z"/>
<path d="M3521 2584 c0 -11 3 -14 6 -6 3 7 2 16 -1 19 -3 4 -6 -2 -5 -13z"/>
<path d="M280 2525 c0 -8 5 -15 10 -15 6 0 10 7 10 15 0 8 -4 15 -10 15 -5 0
-10 -7 -10 -15z"/>
<path d="M325 2520 c-4 -6 -3 -16 3 -22 6 -6 12 -6 17 2 4 6 3 16 -3 22 -6 6
-12 6 -17 -2z"/>
<path d="M370 2499 c0 -11 5 -17 10 -14 6 3 10 13 10 21 0 8 -4 14 -10 14 -5
0 -10 -9 -10 -21z"/>
<path d="M412 2490 c0 -14 2 -19 5 -12 2 6 2 18 0 25 -3 6 -5 1 -5 -13z"/>
<path d="M490 2470 c0 -5 5 -10 10 -10 6 0 10 5 10 10 0 6 -4 10 -10 10 -5 0
-10 -4 -10 -10z"/>
<path d="M530 2455 c0 -8 5 -15 10 -15 6 0 10 7 10 15 0 8 -4 15 -10 15 -5 0
-10 -7 -10 -15z"/>
<path d="M570 2451 c0 -6 5 -13 10 -16 6 -3 10 1 10 9 0 9 -4 16 -10 16 -5 0
-10 -4 -10 -9z"/>
<path d="M696 2433 c-9 -9 -7 -33 3 -33 12 0 22 28 12 34 -5 3 -11 3 -15 -1z"/>
<path d="M735 2411 c-6 -11 9 -23 19 -14 9 9 7 23 -3 23 -6 0 -12 -4 -16 -9z"/>
<path d="M4027 2383 c-4 -21 -2 -42 3 -47 7 -7 10 7 10 37 0 57 -5 60 -13 10z"/>
<path d="M4808 2357 c-5 -10 -8 -33 -8 -50 1 -27 2 -29 11 -14 6 9 9 32 7 50
-2 25 -5 28 -10 14z"/>
<path d="M1064 2329 c-3 -6 -1 -16 5 -22 8 -8 11 -5 11 11 0 24 -5 28 -16 11z"/>
<path d="M1095 2319 c-4 -6 -5 -13 -2 -16 7 -7 27 6 27 18 0 12 -17 12 -25 -2z"/>
<path d="M1135 2309 c-10 -15 3 -25 16 -12 7 7 7 13 1 17 -6 3 -14 1 -17 -5z"/>
<path d="M1177 2306 c-4 -10 -5 -21 -2 -24 9 -9 17 6 13 25 -3 17 -4 17 -11
-1z"/>
<path d="M1222 2285 c0 -16 2 -22 5 -12 2 9 2 23 0 30 -3 6 -5 -1 -5 -18z"/>
<path d="M1257 2286 c-4 -10 -5 -21 -2 -24 9 -9 17 6 13 25 -3 17 -4 17 -11
-1z"/>
<path d="M1290 2265 c0 -8 5 -15 10 -15 6 0 10 7 10 15 0 8 -4 15 -10 15 -5 0
-10 -7 -10 -15z"/>
<path d="M1335 2267 c-4 -10 -5 -21 -1 -24 10 -10 18 4 13 24 -4 17 -4 17 -12
0z"/>
<path d="M1375 2257 c-4 -10 -5 -21 -1 -24 10 -10 18 4 13 24 -4 17 -4 17 -12
0z"/>
<path d="M1400 2241 c0 -17 18 -21 24 -6 3 9 0 15 -9 15 -8 0 -15 -4 -15 -9z"/>
<path d="M1446 2231 c-4 -7 -5 -15 -2 -18 9 -9 19 4 14 18 -4 11 -6 11 -12 0z"/>
<path d="M3895 2179 c-11 -17 1 -21 15 -4 8 9 8 15 2 15 -6 0 -14 -5 -17 -11z"/>
<path d="M1986 2091 c-4 -7 -5 -15 -2 -18 9 -9 19 4 14 18 -4 11 -6 11 -12 0z"/>
<path d="M2020 2080 c0 -5 5 -10 11 -10 5 0 7 5 4 10 -3 6 -8 10 -11 10 -2 0
-4 -4 -4 -10z"/>
<path d="M2055 2080 c-3 -5 -1 -10 4 -10 6 0 11 5 11 10 0 6 -2 10 -4 10 -3 0
-8 -4 -11 -10z"/>
<path d="M2085 2069 c-4 -6 -3 -15 3 -21 6 -6 11 -4 15 6 7 18 -9 31 -18 15z"/>
<path d="M2120 2061 c0 -5 5 -13 10 -16 6 -3 10 -2 10 4 0 5 -4 13 -10 16 -5
3 -10 2 -10 -4z"/>
<path d="M4944 2026 c-4 -10 -2 -22 4 -28 8 -8 13 -7 18 6 4 10 2 22 -4 28 -8
8 -13 7 -18 -6z"/>
<path d="M2450 1960 c0 -5 4 -10 9 -10 6 0 13 5 16 10 3 6 -1 10 -9 10 -9 0
-16 -4 -16 -10z"/>
<path d="M2520 1950 c0 -5 5 -10 10 -10 6 0 10 5 10 10 0 6 -4 10 -10 10 -5 0
-10 -4 -10 -10z"/>
<path d="M2650 1916 c0 -9 5 -16 10 -16 6 0 10 4 10 9 0 6 -4 13 -10 16 -5 3
-10 -1 -10 -9z"/>
<path d="M2680 1910 c0 -5 5 -10 10 -10 6 0 10 5 10 10 0 6 -4 10 -10 10 -5 0
-10 -4 -10 -10z"/>
<path d="M2710 1899 c0 -7 26 -19 41 -19 5 0 9 6 9 13 0 6 -11 12 -25 12 -14
0 -25 -3 -25 -6z"/>
<path d="M3295 1810 c-3 -5 -1 -10 4 -10 6 0 11 5 11 10 0 6 -2 10 -4 10 -3 0
-8 -4 -11 -10z"/>
<path d="M3146 1801 c-4 -7 -5 -15 -2 -18 9 -9 19 4 14 18 -4 11 -6 11 -12 0z"/>
<path d="M3360 1779 c0 -5 5 -7 10 -4 6 3 10 8 10 11 0 2 -4 4 -10 4 -5 0 -10
-5 -10 -11z"/>
<path d="M5386 1601 c-4 -7 -5 -15 -2 -18 9 -9 19 4 14 18 -4 11 -6 11 -12 0z"/>
<path d="M5435 1599 c-10 -15 3 -25 16 -12 7 7 7 13 1 17 -6 3 -14 1 -17 -5z"/>
<path d="M5090 1585 c0 -8 5 -15 10 -15 6 0 10 7 10 15 0 8 -4 15 -10 15 -5 0
-10 -7 -10 -15z"/>
<path d="M5190 1586 c0 -9 5 -16 10 -16 6 0 10 4 10 9 0 6 -4 13 -10 16 -5 3
-10 -1 -10 -9z"/>
<path d="M5140 1580 c0 -5 5 -10 10 -10 6 0 10 5 10 10 0 6 -4 10 -10 10 -5 0
-10 -4 -10 -10z"/>
<path d="M4510 1564 c0 -8 5 -12 10 -9 6 4 8 11 5 16 -9 14 -15 11 -15 -7z"/>
<path d="M4600 1560 c0 -5 5 -10 10 -10 6 0 10 5 10 10 0 6 -4 10 -10 10 -5 0
-10 -4 -10 -10z"/>
<path d="M4650 1559 c0 -5 5 -7 10 -4 6 3 10 8 10 11 0 2 -4 4 -10 4 -5 0 -10
-5 -10 -11z"/>
<path d="M9540 582 c0 -5 7 -15 15 -22 8 -7 15 -8 15 -2 0 5 -7 15 -15 22 -8
7 -15 8 -15 2z"/>
</g>
</svg>
